<svg id="svg" version="1.1" xmlns="http://www.w3.org/2000/svg" xmlns:xlink="http://www.w3.org/1999/xlink" width="400" height="400" viewBox="0, 0, 400,400"><g id="svgg"><path id="path0" d="M187.794 10.011 C 187.657 10.232,187.379 10.311,187.177 10.186 C 186.975 10.061,186.916 10.238,187.047 10.579 C 187.178 10.921,187.101 11.200,186.876 11.200 C 186.651 11.200,186.396 10.987,186.309 10.726 C 185.996 9.788,182.112 9.927,181.862 10.885 C 181.672 11.609,181.548 11.655,181.003 11.203 C 180.521 10.802,180.254 10.786,179.903 11.137 C 179.368 11.672,178.651 11.765,178.964 11.259 C 179.079 11.071,178.461 10.936,177.588 10.959 C 176.716 10.982,176.002 11.118,176.001 11.263 C 176.000 11.407,175.640 11.431,175.200 11.316 C 174.750 11.198,174.400 11.304,174.400 11.557 C 174.400 11.873,174.158 11.857,173.588 11.503 C 172.916 11.087,172.710 11.104,172.394 11.600 C 172.184 11.930,172.009 12.043,172.006 11.851 C 172.003 11.659,171.730 11.726,171.400 12.000 C 170.989 12.341,170.800 12.357,170.800 12.051 C 170.800 11.443,168.936 11.845,167.058 12.859 C 166.540 13.138,166.396 13.130,166.582 12.830 C 166.728 12.593,166.667 12.400,166.447 12.400 C 166.227 12.400,165.941 12.572,165.811 12.783 C 165.681 12.993,165.310 13.064,164.986 12.939 C 164.653 12.811,164.042 13.122,163.576 13.657 C 162.767 14.586,162.761 14.586,163.191 13.700 C 163.485 13.094,163.493 12.800,163.214 12.800 C 162.986 12.800,162.800 12.983,162.800 13.208 C 162.800 13.438,162.383 13.511,161.844 13.375 C 161.318 13.243,160.767 13.330,160.620 13.568 C 160.473 13.805,159.845 14.000,159.225 14.000 C 158.605 14.000,157.872 14.272,157.596 14.605 C 157.200 15.082,156.972 15.109,156.516 14.731 C 156.078 14.367,155.870 14.364,155.650 14.718 C 155.492 14.975,154.965 15.109,154.481 15.016 C 153.996 14.922,153.600 15.010,153.600 15.210 C 153.600 15.411,153.353 15.480,153.052 15.364 C 152.750 15.249,152.251 15.407,151.942 15.715 C 151.633 16.024,150.990 16.217,150.513 16.144 C 150.036 16.072,149.378 16.279,149.051 16.606 C 148.378 17.279,147.826 17.405,148.200 16.800 C 148.336 16.580,148.267 16.400,148.047 16.400 C 147.827 16.400,147.528 16.592,147.383 16.827 C 147.238 17.062,146.911 17.175,146.657 17.077 C 146.088 16.859,145.144 17.803,145.524 18.212 C 145.676 18.375,145.395 18.298,144.900 18.040 C 144.402 17.781,144.000 17.740,144.000 17.948 C 144.000 18.156,143.612 18.224,143.137 18.100 C 142.594 17.957,142.370 18.029,142.533 18.292 C 142.675 18.521,142.433 18.803,141.996 18.917 C 141.542 19.036,141.197 18.926,141.194 18.663 C 141.189 18.317,141.112 18.319,140.890 18.668 C 140.726 18.926,140.054 19.256,139.396 19.402 C 138.738 19.548,137.930 19.771,137.600 19.899 C 136.942 20.153,136.558 20.271,136.100 20.356 C 135.935 20.387,136.070 20.587,136.400 20.800 C 136.761 21.033,136.810 21.190,136.524 21.194 C 136.262 21.197,135.929 21.008,135.784 20.774 C 135.609 20.491,135.287 20.559,134.828 20.975 C 134.447 21.320,134.034 21.501,133.911 21.377 C 133.300 20.767,129.335 23.179,129.919 23.807 C 130.074 23.973,129.759 23.878,129.219 23.597 C 128.497 23.220,128.198 23.207,128.085 23.545 C 128.001 23.798,127.755 23.896,127.539 23.762 C 127.323 23.629,127.043 23.913,126.918 24.394 C 126.762 24.988,126.593 25.112,126.388 24.781 C 126.094 24.304,123.600 25.048,123.600 25.613 C 123.600 25.732,123.220 25.858,122.755 25.893 C 121.649 25.977,121.292 26.362,121.945 26.766 C 122.352 27.018,122.321 27.145,121.801 27.344 C 120.905 27.688,120.800 27.670,120.800 27.176 C 120.800 26.943,121.008 26.881,121.262 27.038 C 121.542 27.212,121.615 27.148,121.448 26.877 C 120.823 25.866,117.269 28.237,117.809 29.305 C 117.947 29.577,117.803 29.488,117.490 29.106 C 117.177 28.725,116.789 28.545,116.627 28.706 C 116.466 28.868,116.168 29.023,115.967 29.050 C 115.157 29.160,115.118 29.220,115.535 29.722 C 115.878 30.134,115.703 30.225,114.699 30.156 C 113.324 30.061,110.636 31.206,111.528 31.507 C 111.861 31.620,111.659 31.892,110.983 32.243 C 109.650 32.934,109.058 32.956,109.456 32.300 C 109.623 32.025,109.094 32.304,108.280 32.920 C 107.466 33.537,106.800 33.914,106.800 33.758 C 106.800 33.603,106.377 33.968,105.860 34.569 C 105.343 35.171,104.668 35.627,104.360 35.584 C 103.061 35.401,102.555 35.583,103.200 36.000 C 103.618 36.270,103.648 36.405,103.300 36.444 C 102.371 36.548,102.203 36.605,100.717 37.314 C 99.189 38.043,98.184 39.011,99.466 38.519 C 100.095 38.278,100.108 38.319,99.587 38.884 C 99.264 39.235,98.940 39.359,98.867 39.161 C 98.574 38.369,97.507 38.800,97.722 39.623 C 97.881 40.233,97.812 40.342,97.455 40.046 C 96.844 39.539,95.925 40.081,96.121 40.832 C 96.202 41.144,96.193 41.264,96.100 41.098 C 96.008 40.931,95.739 40.914,95.504 41.059 C 95.253 41.215,95.193 41.135,95.359 40.866 C 95.542 40.571,95.423 40.493,95.023 40.646 C 94.683 40.777,94.504 41.045,94.626 41.242 C 94.748 41.439,94.522 41.618,94.124 41.640 C 93.611 41.668,93.692 41.773,94.400 42.000 C 94.950 42.176,95.175 42.338,94.900 42.360 C 94.625 42.382,94.338 42.355,94.261 42.300 C 94.185 42.245,93.821 42.450,93.452 42.757 C 92.863 43.245,92.814 43.228,93.049 42.617 C 93.287 41.996,93.224 41.979,92.458 42.457 C 91.541 43.030,91.295 44.000,92.067 44.000 C 92.323 44.000,92.418 44.116,92.276 44.257 C 92.135 44.398,91.745 44.286,91.410 44.008 C 90.900 43.585,90.799 43.625,90.794 44.251 C 90.789 44.881,90.726 44.905,90.400 44.400 C 90.081 43.906,90.011 43.900,90.006 44.367 C 90.003 44.678,89.891 44.824,89.757 44.691 C 89.355 44.289,88.486 45.351,88.688 45.998 C 88.850 46.520,88.820 46.522,88.462 46.016 C 88.106 45.513,87.934 45.536,87.224 46.178 C 86.217 47.090,86.149 47.773,87.100 47.442 C 87.665 47.245,87.647 47.316,87.005 47.813 C 86.567 48.151,86.153 48.260,86.085 48.054 C 85.934 47.602,83.600 48.705,83.600 49.229 C 83.600 49.433,83.791 49.600,84.024 49.600 C 84.257 49.600,84.319 49.392,84.162 49.138 C 83.984 48.850,84.052 48.785,84.345 48.966 C 85.071 49.415,84.429 50.063,83.538 49.780 C 82.645 49.497,81.065 50.659,81.465 51.305 C 81.601 51.524,81.465 51.622,81.164 51.521 C 80.863 51.421,80.433 51.491,80.209 51.677 C 79.984 51.863,79.356 52.382,78.813 52.830 C 77.980 53.517,77.918 53.710,78.413 54.057 C 78.879 54.385,78.827 54.432,78.157 54.287 C 77.127 54.064,76.000 54.642,76.000 55.393 C 76.000 55.697,75.640 56.060,75.200 56.200 C 74.760 56.340,74.400 56.700,74.400 57.000 C 74.400 57.300,73.995 57.670,73.500 57.820 C 71.883 58.313,71.176 59.197,71.635 60.150 C 71.999 60.905,71.983 60.925,71.499 60.329 C 70.849 59.528,69.862 59.974,70.220 60.908 C 70.356 61.262,70.267 61.877,70.024 62.276 C 69.639 62.903,69.595 62.910,69.690 62.326 C 69.751 61.956,69.620 61.686,69.400 61.726 C 69.180 61.767,69.045 61.935,69.100 62.100 C 69.155 62.265,69.065 62.355,68.900 62.300 C 68.735 62.245,68.600 62.380,68.600 62.600 C 68.600 62.820,68.735 62.955,68.900 62.900 C 69.407 62.731,69.234 63.074,68.523 63.651 C 68.063 64.024,67.943 64.040,68.147 63.700 C 68.350 63.361,68.166 63.200,67.575 63.200 C 66.834 63.200,66.779 63.293,67.214 63.817 C 67.616 64.301,67.622 64.538,67.239 64.917 C 66.858 65.295,66.810 65.248,67.019 64.700 C 67.174 64.294,67.099 64.000,66.843 64.000 C 66.407 64.000,66.243 64.520,66.370 65.500 C 66.406 65.775,66.247 66.000,66.018 66.000 C 65.788 66.000,65.600 65.719,65.600 65.376 C 65.600 65.033,65.420 64.864,65.199 65.001 C 64.938 65.162,64.933 65.500,65.182 65.967 C 65.481 66.524,65.339 66.883,64.547 67.571 C 63.550 68.438,63.534 68.440,63.791 67.629 C 63.943 67.150,63.877 66.800,63.635 66.800 C 63.404 66.800,63.105 67.238,62.971 67.773 C 62.815 68.396,62.523 68.669,62.163 68.531 C 61.605 68.316,61.442 68.753,61.579 70.100 C 61.618 70.485,61.448 70.800,61.202 70.800 C 60.955 70.800,60.864 70.620,61.000 70.400 C 61.136 70.180,61.097 70.000,60.913 70.000 C 60.467 70.000,58.989 71.719,59.107 72.100 C 59.158 72.265,59.065 72.355,58.900 72.300 C 58.735 72.245,58.600 72.303,58.600 72.429 C 58.600 72.554,58.279 72.978,57.886 73.371 C 57.472 73.785,57.269 74.388,57.403 74.808 C 57.529 75.207,57.447 75.647,57.221 75.787 C 56.967 75.944,56.910 75.778,57.073 75.355 C 57.265 74.853,57.194 74.756,56.806 74.996 C 56.422 75.234,56.369 75.170,56.615 74.762 C 56.903 74.284,56.852 74.282,56.281 74.745 C 55.911 75.045,55.707 75.450,55.828 75.645 C 55.949 75.840,55.773 76.000,55.438 76.000 C 54.589 76.000,53.911 77.351,54.476 77.916 C 54.795 78.235,54.680 78.294,54.058 78.131 C 53.433 77.968,53.200 78.089,53.200 78.577 C 53.200 78.946,53.039 79.148,52.842 79.026 C 52.645 78.904,52.384 79.064,52.262 79.382 C 52.104 79.795,52.235 79.886,52.720 79.702 C 53.094 79.560,52.775 80.109,52.012 80.922 C 50.558 82.470,49.917 82.897,50.844 81.700 C 51.271 81.148,51.194 81.164,50.479 81.775 C 49.980 82.201,49.656 82.768,49.758 83.035 C 49.861 83.303,49.574 83.618,49.120 83.737 C 48.562 83.883,48.376 84.160,48.543 84.597 C 48.687 84.972,48.625 85.139,48.395 84.997 C 47.839 84.653,47.902 85.342,48.480 85.920 C 48.814 86.254,48.824 86.400,48.513 86.400 C 48.268 86.400,47.975 86.175,47.864 85.900 C 47.590 85.226,46.796 86.325,47.060 87.012 C 47.162 87.279,46.956 87.608,46.602 87.744 C 46.172 87.909,46.042 87.826,46.209 87.495 C 46.347 87.223,46.179 87.345,45.836 87.767 C 45.336 88.383,45.311 88.654,45.707 89.142 C 46.124 89.656,46.081 89.705,45.432 89.461 C 44.683 89.180,44.012 89.718,44.012 90.600 C 44.012 90.820,44.167 90.756,44.356 90.457 C 44.611 90.055,44.775 90.036,44.990 90.384 C 45.168 90.672,44.955 90.939,44.440 91.074 C 43.978 91.194,43.600 91.482,43.600 91.713 C 43.600 91.944,43.479 92.012,43.330 91.863 C 42.987 91.520,41.575 93.636,41.850 94.082 C 41.963 94.264,42.251 94.292,42.489 94.145 C 42.754 93.981,42.808 94.063,42.628 94.354 C 42.466 94.617,42.012 94.731,41.619 94.606 C 41.097 94.440,40.773 94.701,40.410 95.577 C 40.137 96.235,39.663 96.981,39.357 97.236 C 39.051 97.490,38.800 97.968,38.800 98.298 C 38.800 98.790,38.910 98.807,39.410 98.392 C 39.745 98.114,40.111 97.978,40.224 98.091 C 40.337 98.203,39.803 98.592,39.039 98.955 C 37.705 99.588,36.928 100.809,37.146 101.931 C 37.203 102.223,36.878 102.559,36.425 102.678 C 35.971 102.796,35.600 103.063,35.600 103.270 C 35.600 103.478,35.750 103.555,35.933 103.441 C 36.117 103.328,36.267 103.487,36.267 103.795 C 36.267 104.103,36.162 104.344,36.033 104.330 C 35.245 104.245,34.787 104.455,35.002 104.803 C 35.139 105.024,34.959 105.318,34.602 105.454 C 34.209 105.605,34.050 105.953,34.198 106.339 C 34.332 106.689,34.315 106.849,34.161 106.694 C 34.006 106.539,33.636 106.880,33.339 107.452 C 32.672 108.738,32.666 108.920,33.300 108.577 C 33.575 108.428,33.265 108.787,32.612 109.375 C 31.941 109.979,31.593 110.565,31.812 110.722 C 32.619 111.301,32.446 112.068,31.571 111.791 C 30.843 111.560,30.760 111.643,30.991 112.371 C 31.170 112.935,31.099 113.183,30.779 113.110 C 30.514 113.050,30.262 113.373,30.221 113.828 C 30.179 114.283,29.756 115.044,29.281 115.519 C 28.422 116.378,28.458 117.585,29.343 117.616 C 29.594 117.624,29.202 117.891,28.472 118.208 C 27.741 118.526,27.257 118.968,27.395 119.193 C 27.534 119.417,27.446 119.600,27.200 119.600 C 26.954 119.600,26.856 119.768,26.983 119.972 C 27.109 120.177,27.038 120.453,26.824 120.585 C 26.610 120.717,26.546 121.135,26.681 121.513 C 26.817 121.891,26.775 122.062,26.590 121.893 C 26.252 121.586,24.467 124.920,24.423 125.938 C 24.410 126.234,24.161 126.954,23.869 127.538 C 23.578 128.122,23.052 129.175,22.701 129.877 C 22.350 130.580,22.167 131.553,22.295 132.040 C 22.474 132.727,22.400 132.849,21.963 132.586 C 21.492 132.302,21.485 132.352,21.922 132.891 C 22.355 133.425,22.347 133.593,21.876 133.868 C 21.255 134.231,20.083 136.334,19.863 137.479 C 19.560 139.055,19.062 140.610,18.800 140.800 C 18.157 141.265,17.974 143.185,18.595 142.947 C 18.940 142.814,19.200 142.934,19.200 143.224 C 19.200 143.504,19.082 143.615,18.937 143.470 C 18.482 143.015,17.600 144.056,17.600 145.049 C 17.600 145.572,17.420 146.000,17.200 146.000 C 16.980 146.000,16.803 146.315,16.806 146.700 C 16.811 147.245,16.888 147.280,17.156 146.857 C 17.378 146.507,17.591 146.462,17.757 146.730 C 17.898 146.958,17.827 147.260,17.600 147.400 C 17.373 147.540,17.291 147.823,17.417 148.028 C 17.544 148.232,17.472 148.400,17.257 148.400 C 17.042 148.400,16.780 148.175,16.674 147.900 C 16.495 147.436,16.432 147.893,16.379 150.050 C 16.367 150.517,16.097 151.160,15.779 151.478 C 15.460 151.797,15.203 152.359,15.206 152.729 C 15.211 153.249,15.288 153.280,15.550 152.866 C 15.821 152.439,15.939 152.464,16.140 152.987 C 16.278 153.347,16.249 153.554,16.076 153.447 C 15.400 153.029,14.547 153.964,15.200 154.408 C 15.733 154.770,15.733 154.870,15.200 155.309 C 14.465 155.914,14.245 156.800,14.829 156.800 C 15.064 156.800,14.964 157.093,14.606 157.452 C 14.247 157.810,14.054 158.350,14.177 158.652 C 14.485 159.410,14.708 160.272,14.492 159.872 C 14.139 159.218,13.271 161.069,13.355 162.294 C 13.403 162.985,13.298 163.460,13.121 163.351 C 12.945 163.242,12.800 163.444,12.800 163.800 C 12.800 164.211,12.982 164.338,13.300 164.147 C 13.678 163.920,13.674 164.002,13.283 164.484 C 12.861 165.006,12.861 165.160,13.283 165.330 C 13.604 165.458,13.527 165.549,13.080 165.568 C 12.485 165.595,12.387 165.875,12.518 167.181 C 12.625 168.254,12.503 168.828,12.138 168.968 C 11.842 169.082,11.600 169.461,11.600 169.811 C 11.600 170.214,11.784 170.337,12.100 170.147 C 12.478 169.920,12.474 170.002,12.083 170.484 C 11.699 170.959,11.687 171.162,12.037 171.279 C 12.360 171.387,12.302 171.640,11.854 172.089 C 11.081 172.862,10.989 173.374,11.700 172.947 C 12.027 172.750,12.006 172.885,11.640 173.337 C 11.180 173.904,11.170 174.197,11.586 174.974 C 11.865 175.495,11.996 176.164,11.878 176.461 C 11.760 176.757,11.649 176.565,11.632 176.033 C 11.586 174.650,11.183 175.249,10.963 177.027 C 10.842 177.996,10.958 178.650,11.284 178.852 C 11.671 179.091,11.682 179.278,11.328 179.632 C 11.072 179.888,10.961 180.353,11.080 180.665 C 11.200 180.977,11.141 181.204,10.949 181.169 C 10.128 181.019,9.845 181.241,10.400 181.600 C 10.800 181.858,10.833 181.990,10.500 181.994 C 9.850 182.002,9.850 183.073,10.500 183.335 C 10.900 183.496,10.900 183.543,10.500 183.568 C 9.919 183.605,9.809 185.200,10.387 185.200 C 10.601 185.200,10.664 185.488,10.529 185.840 C 10.394 186.193,10.535 186.660,10.842 186.878 C 11.284 187.193,11.259 187.230,10.720 187.058 C 9.935 186.807,9.607 187.571,9.676 189.500 C 9.707 190.392,9.922 190.809,10.361 190.828 C 10.913 190.852,10.918 190.893,10.397 191.128 C 9.746 191.421,9.562 193.832,10.124 194.700 C 10.311 194.989,10.268 195.200,10.024 195.200 C 9.516 195.200,9.636 196.080,10.200 196.494 C 10.452 196.679,10.424 196.790,10.125 196.794 C 9.864 196.797,9.677 197.160,9.710 197.600 C 9.773 198.439,10.400 198.742,10.400 197.933 C 10.400 197.677,10.535 197.601,10.699 197.766 C 10.864 197.931,10.729 198.276,10.399 198.533 C 9.627 199.135,9.627 200.865,10.399 201.467 C 10.729 201.724,10.864 202.069,10.699 202.234 C 10.535 202.399,10.400 202.323,10.400 202.067 C 10.400 201.258,9.773 201.561,9.710 202.400 C 9.677 202.840,9.864 203.203,10.125 203.206 C 10.447 203.210,10.428 203.321,10.066 203.551 C 9.387 203.981,9.387 204.420,10.066 204.843 C 10.498 205.112,10.505 205.329,10.100 205.982 C 9.497 206.955,9.459 207.334,9.999 207.001 C 10.258 206.840,10.272 207.084,10.039 207.698 C 9.543 209.003,9.588 211.600,10.107 211.600 C 10.341 211.600,10.415 211.718,10.270 211.863 C 10.125 212.008,10.198 212.356,10.431 212.638 C 10.698 212.959,10.722 213.418,10.495 213.874 C 9.813 215.245,9.918 217.649,10.684 218.246 C 11.359 218.770,11.354 218.788,10.600 218.564 C 9.921 218.361,9.951 218.457,10.800 219.197 C 11.350 219.677,11.575 219.953,11.300 219.811 C 10.948 219.629,10.800 219.950,10.800 220.896 C 10.800 221.635,11.025 222.482,11.300 222.779 C 11.700 223.210,11.700 223.261,11.300 223.035 C 10.663 222.675,10.649 223.289,11.280 223.920 C 11.544 224.184,11.589 224.403,11.380 224.406 C 11.171 224.409,11.270 224.589,11.600 224.806 C 12.013 225.077,12.063 225.294,11.761 225.500 C 11.127 225.933,11.207 227.286,11.915 228.100 C 12.250 228.485,12.343 228.800,12.122 228.800 C 11.900 228.800,11.737 229.295,11.760 229.900 C 11.791 230.760,11.970 230.970,12.578 230.864 C 13.208 230.755,13.268 230.837,12.888 231.293 C 12.308 231.993,12.573 234.409,13.279 234.857 C 13.699 235.124,13.694 235.189,13.251 235.194 C 12.831 235.199,12.809 235.329,13.158 235.749 C 13.409 236.051,13.490 236.621,13.339 237.015 C 13.150 237.507,13.211 237.641,13.532 237.442 C 14.106 237.087,14.129 237.412,13.599 238.402 C 13.331 238.903,13.331 239.234,13.599 239.399 C 13.820 239.536,14.013 240.222,14.028 240.924 C 14.051 241.951,14.116 242.046,14.365 241.411 C 14.644 240.696,14.691 240.720,14.874 241.673 C 14.984 242.251,14.914 243.011,14.717 243.362 C 14.506 243.740,14.508 244.000,14.725 244.000 C 14.925 244.000,15.010 244.416,14.912 244.925 C 14.783 245.600,14.987 245.970,15.668 246.297 C 16.392 246.646,16.444 246.752,15.900 246.773 C 15.148 246.802,14.940 247.792,15.600 248.200 C 15.820 248.336,16.000 248.797,16.000 249.224 C 16.000 249.651,16.174 250.000,16.387 250.000 C 16.601 250.000,16.678 249.685,16.560 249.300 C 16.442 248.915,16.615 249.050,16.945 249.600 C 17.459 250.458,17.463 250.618,16.972 250.729 C 16.657 250.800,16.400 251.216,16.400 251.653 C 16.400 252.090,16.582 252.335,16.803 252.198 C 17.352 251.859,17.934 253.551,17.727 254.881 C 17.581 255.813,17.678 255.939,18.429 255.794 C 19.287 255.629,19.289 255.639,18.550 256.482 C 18.137 256.953,18.005 257.219,18.255 257.073 C 18.513 256.923,18.799 257.152,18.917 257.604 C 19.031 258.042,18.962 258.400,18.763 258.400 C 18.563 258.400,18.400 258.580,18.400 258.800 C 18.400 259.020,18.668 259.200,18.995 259.200 C 19.323 259.200,19.564 259.515,19.532 259.900 C 19.380 261.718,19.564 262.127,20.277 261.549 C 20.737 261.176,20.857 261.160,20.653 261.500 C 20.484 261.782,20.550 262.000,20.805 262.000 C 21.072 262.000,21.006 262.251,20.646 262.612 C 20.005 263.252,20.149 264.164,21.062 265.232 C 21.359 265.580,21.466 266.000,21.301 266.166 C 21.135 266.331,21.180 266.430,21.400 266.386 C 22.287 266.207,22.470 266.434,21.949 267.065 C 21.519 267.586,21.509 267.767,21.902 267.899 C 22.179 267.992,22.306 268.228,22.186 268.423 C 21.904 268.878,23.187 270.855,23.598 270.601 C 24.271 270.185,24.832 271.475,24.205 271.996 C 23.307 272.741,23.472 273.293,24.500 272.982 C 25.234 272.760,25.308 272.807,24.900 273.235 C 24.211 273.959,24.273 274.535,25.009 274.252 C 25.498 274.064,25.539 274.167,25.217 274.769 C 24.905 275.351,24.968 275.579,25.496 275.782 C 26.038 275.990,26.068 276.111,25.642 276.374 C 25.211 276.640,25.253 276.857,25.853 277.474 C 26.264 277.896,26.648 278.682,26.707 279.221 C 26.766 279.759,27.190 280.713,27.648 281.340 C 28.394 282.358,28.672 283.055,28.769 284.143 C 28.786 284.331,29.061 284.386,29.380 284.263 C 29.769 284.114,29.885 284.233,29.735 284.625 C 29.596 284.988,29.717 285.157,30.055 285.070 C 30.355 284.994,30.465 285.007,30.300 285.099 C 29.625 285.476,29.993 286.778,30.700 286.513 C 31.313 286.283,31.332 286.334,30.851 286.925 C 30.377 287.508,30.393 287.600,30.975 287.600 C 31.345 287.600,31.531 287.788,31.389 288.018 C 31.247 288.247,31.457 288.922,31.855 289.518 C 32.253 290.113,32.604 290.690,32.635 290.800 C 33.004 292.124,33.887 293.600,34.311 293.600 C 34.606 293.600,34.736 293.780,34.600 294.000 C 34.464 294.220,34.538 294.400,34.764 294.400 C 34.990 294.400,35.072 294.668,34.946 294.997 C 34.815 295.337,34.992 295.699,35.358 295.839 C 35.711 295.975,36.000 296.336,36.000 296.643 C 36.000 296.949,36.191 297.200,36.424 297.200 C 36.657 297.200,36.736 297.380,36.600 297.600 C 36.464 297.820,36.554 298.000,36.800 298.000 C 37.046 298.000,37.145 298.165,37.020 298.368 C 36.895 298.570,37.056 298.999,37.377 299.320 C 37.699 299.642,37.855 300.012,37.724 300.143 C 37.593 300.274,37.781 300.495,38.143 300.633 C 38.504 300.772,38.800 301.144,38.800 301.459 C 38.800 302.663,40.490 304.423,41.135 303.892 C 41.654 303.463,41.667 303.520,41.233 304.334 C 40.959 304.848,40.840 305.373,40.968 305.501 C 41.095 305.629,41.200 305.568,41.200 305.367 C 41.200 305.165,41.582 305.770,42.047 306.710 C 42.727 308.085,43.002 308.330,43.447 307.961 C 43.884 307.599,44.006 307.660,44.031 308.251 C 44.095 309.815,44.359 310.386,45.561 311.562 C 46.242 312.228,46.800 312.959,46.800 313.187 C 46.800 313.414,47.115 313.603,47.500 313.606 C 48.087 313.611,48.105 313.672,47.611 313.985 C 47.107 314.304,47.121 314.395,47.711 314.621 C 48.090 314.767,48.400 315.124,48.400 315.416 C 48.400 315.707,48.751 316.057,49.180 316.194 C 49.649 316.342,49.871 316.670,49.738 317.017 C 49.609 317.354,49.825 317.707,50.258 317.867 C 50.666 318.018,51.132 318.335,51.294 318.571 C 51.491 318.859,51.590 318.836,51.594 318.500 C 51.597 318.225,51.808 318.000,52.062 318.000 C 52.324 318.000,52.211 318.346,51.800 318.800 C 51.169 319.497,51.158 319.600,51.714 319.600 C 52.066 319.600,52.481 319.808,52.638 320.062 C 52.815 320.348,52.748 320.415,52.462 320.238 C 51.615 319.715,51.985 320.319,53.500 321.934 C 54.325 322.813,55.540 324.146,56.200 324.896 C 56.860 325.646,57.726 326.380,58.125 326.527 C 58.524 326.674,58.748 326.960,58.623 327.163 C 58.297 327.690,60.387 330.055,60.898 329.739 C 61.132 329.595,61.212 329.657,61.076 329.878 C 60.736 330.427,62.341 332.084,62.886 331.747 C 63.127 331.598,63.225 331.639,63.104 331.838 C 62.983 332.037,63.122 332.420,63.413 332.688 C 63.829 333.073,63.983 333.073,64.139 332.688 C 64.264 332.379,64.348 332.428,64.368 332.823 C 64.386 333.165,64.895 333.650,65.500 333.900 C 66.105 334.150,66.325 334.320,65.988 334.277 C 65.652 334.235,65.292 334.368,65.188 334.574 C 65.085 334.779,65.630 335.017,66.400 335.103 C 67.170 335.188,67.980 335.436,68.200 335.653 C 68.464 335.913,68.339 335.948,67.834 335.756 C 67.240 335.529,67.145 335.591,67.411 336.032 C 67.703 336.517,67.654 336.520,67.077 336.051 C 65.895 335.093,66.346 335.866,67.840 337.360 C 69.267 338.787,70.141 339.334,69.219 338.223 C 68.829 337.753,68.878 337.656,69.479 337.701 C 69.995 337.740,70.216 338.067,70.210 338.778 C 70.204 339.386,70.403 339.759,70.700 339.700 C 70.975 339.645,71.200 339.864,71.200 340.186 C 71.200 341.134,72.701 341.754,72.925 340.899 C 73.060 340.382,73.119 340.437,73.154 341.113 C 73.179 341.614,73.470 342.129,73.800 342.255 C 74.130 342.382,74.400 342.771,74.400 343.119 C 74.400 343.646,74.491 343.629,74.939 343.016 C 75.551 342.179,76.082 342.675,76.157 344.154 C 76.185 344.710,76.509 345.044,77.100 345.128 C 77.595 345.198,78.000 345.423,78.000 345.628 C 78.000 346.730,78.997 347.773,79.659 347.364 C 79.948 347.185,80.016 347.251,79.838 347.538 C 79.667 347.815,79.813 348.000,80.200 348.000 C 80.556 348.000,80.736 348.180,80.600 348.400 C 80.464 348.620,80.543 348.800,80.776 348.800 C 81.009 348.800,81.200 348.650,81.200 348.467 C 81.200 348.283,81.470 348.133,81.800 348.133 C 82.531 348.133,82.563 348.465,81.900 349.179 C 81.500 349.610,81.500 349.661,81.900 349.435 C 82.200 349.266,82.400 349.385,82.400 349.734 C 82.400 350.242,82.923 350.628,83.904 350.843 C 84.067 350.878,84.436 351.244,84.724 351.656 C 85.013 352.068,85.733 352.662,86.324 352.976 C 86.916 353.290,87.854 353.978,88.408 354.505 C 88.962 355.031,89.596 355.401,89.817 355.328 C 90.038 355.254,90.819 355.831,91.553 356.609 C 92.686 357.810,92.984 357.947,93.521 357.512 C 93.869 357.231,94.033 357.201,93.886 357.447 C 93.739 357.692,93.975 358.215,94.409 358.609 C 94.844 359.002,95.205 359.161,95.212 358.962 C 95.219 358.763,95.404 358.908,95.623 359.283 C 95.866 359.700,96.276 359.869,96.676 359.715 C 97.082 359.560,97.232 359.625,97.070 359.887 C 96.595 360.655,97.960 361.418,98.832 360.873 C 99.298 360.582,99.600 360.552,99.600 360.797 C 99.600 361.018,99.375 361.206,99.100 361.213 C 98.825 361.221,99.024 361.580,99.542 362.011 C 100.060 362.443,100.645 362.696,100.842 362.574 C 101.039 362.452,101.200 362.554,101.200 362.800 C 101.200 363.046,101.380 363.136,101.600 363.000 C 101.820 362.864,102.000 362.963,102.000 363.219 C 102.000 363.476,102.233 363.596,102.517 363.487 C 103.087 363.268,104.478 364.132,104.411 364.664 C 104.387 364.849,104.738 365.058,105.190 365.129 C 105.697 365.208,105.903 365.438,105.729 365.729 C 105.549 366.028,105.680 366.011,106.088 365.681 C 106.519 365.331,106.814 365.299,106.988 365.581 C 107.131 365.811,107.107 366.000,106.935 366.000 C 106.763 366.000,107.019 366.278,107.504 366.618 C 108.192 367.100,108.585 367.139,109.293 366.796 C 110.174 366.369,110.177 366.374,109.406 366.991 C 108.619 367.620,108.620 367.628,109.495 367.857 C 109.980 367.983,110.432 368.023,110.498 367.944 C 110.564 367.865,111.035 368.188,111.545 368.663 C 112.789 369.822,114.156 370.189,113.811 369.271 C 113.672 368.902,114.103 369.230,114.768 370.000 C 115.726 371.110,116.054 371.284,116.348 370.842 C 116.648 370.390,116.756 370.428,116.913 371.042 C 117.082 371.700,117.113 371.708,117.154 371.100 C 117.179 370.715,117.374 370.400,117.587 370.400 C 117.801 370.400,117.868 370.679,117.737 371.019 C 117.491 371.660,118.743 372.883,119.296 372.541 C 119.463 372.437,119.600 372.543,119.600 372.776 C 119.600 373.009,119.791 373.200,120.024 373.200 C 120.257 373.200,120.333 372.975,120.194 372.700 C 120.055 372.425,120.207 372.526,120.532 372.924 C 120.973 373.464,121.201 373.523,121.427 373.156 C 121.643 372.806,121.819 372.899,122.032 373.474 C 122.346 374.324,126.102 375.832,126.812 375.393 C 127.020 375.264,127.088 375.427,126.962 375.755 C 126.792 376.198,127.128 376.417,128.267 376.607 C 129.110 376.747,130.070 376.965,130.400 377.090 C 130.730 377.215,131.397 377.336,131.883 377.359 C 132.368 377.381,133.038 377.760,133.370 378.200 C 133.703 378.640,133.980 378.837,133.987 378.638 C 133.994 378.439,134.360 378.602,134.800 379.000 C 135.413 379.555,135.603 379.593,135.612 379.162 C 135.621 378.773,135.753 378.821,136.042 379.318 C 136.328 379.809,136.718 379.953,137.280 379.775 C 137.827 379.601,138.009 379.662,137.826 379.957 C 137.528 380.441,138.096 380.571,138.545 380.122 C 139.144 379.523,139.986 379.719,140.556 380.589 C 141.397 381.873,143.208 382.272,143.915 381.329 C 144.437 380.634,144.456 380.637,144.331 381.400 C 144.231 382.009,144.415 382.192,145.100 382.168 C 145.598 382.151,146.000 382.374,146.000 382.668 C 146.000 382.961,146.315 383.197,146.700 383.194 C 147.298 383.189,147.313 383.131,146.800 382.800 C 146.287 382.469,146.302 382.411,146.900 382.406 C 147.285 382.403,147.600 382.681,147.600 383.025 C 147.600 383.387,147.895 383.614,148.300 383.564 C 148.685 383.516,149.270 383.573,149.600 383.691 C 150.606 384.051,153.775 384.928,154.200 384.965 C 154.420 384.984,154.555 384.775,154.500 384.500 C 154.445 384.225,154.580 384.000,154.800 384.000 C 155.020 384.000,155.200 384.270,155.200 384.600 C 155.200 384.930,155.335 385.214,155.500 385.231 C 156.109 385.293,157.124 385.522,157.951 385.784 C 158.473 385.950,158.800 385.881,158.800 385.603 C 158.800 385.356,158.632 385.256,158.428 385.383 C 158.223 385.509,157.952 385.446,157.826 385.242 C 157.699 385.037,157.881 384.912,158.230 384.963 C 158.579 385.014,159.011 385.295,159.192 385.586 C 159.374 385.881,159.813 386.004,160.180 385.863 C 160.544 385.723,160.739 385.775,160.614 385.977 C 160.261 386.549,161.058 386.851,162.179 386.570 C 162.785 386.417,163.089 386.130,162.933 385.857 C 162.784 385.596,162.828 385.543,163.036 385.733 C 163.236 385.917,163.400 386.260,163.400 386.495 C 163.400 386.731,163.693 386.967,164.050 387.019 C 164.408 387.072,165.286 387.243,166.000 387.400 C 166.909 387.600,167.218 387.552,167.026 387.243 C 166.876 386.999,166.943 386.800,167.176 386.800 C 167.409 386.800,167.600 386.957,167.600 387.150 C 167.600 387.459,168.421 387.731,170.924 388.252 C 171.336 388.337,171.542 388.229,171.401 388.001 C 171.261 387.775,171.555 387.614,172.076 387.632 C 172.584 387.649,172.774 387.754,172.498 387.866 C 171.789 388.151,172.293 388.800,173.224 388.800 C 173.651 388.800,173.955 388.575,173.900 388.300 C 173.783 387.714,175.927 387.367,176.448 387.888 C 176.650 388.090,176.160 388.170,175.300 388.076 C 174.269 387.964,173.925 388.043,174.200 388.329 C 174.811 388.965,179.199 389.273,179.206 388.681 C 179.210 388.352,179.320 388.371,179.555 388.741 C 179.815 389.152,180.093 389.178,180.703 388.852 C 181.365 388.498,181.498 388.541,181.454 389.095 C 181.424 389.466,181.715 389.834,182.100 389.914 C 182.485 389.994,182.800 389.855,182.800 389.606 C 182.800 389.357,182.592 389.281,182.338 389.438 C 182.079 389.598,181.984 389.549,182.121 389.327 C 182.410 388.861,183.849 388.902,184.292 389.389 C 184.461 389.576,184.387 389.606,184.128 389.458 C 183.868 389.309,183.538 389.377,183.395 389.608 C 183.222 389.888,183.821 389.991,185.170 389.915 C 186.551 389.837,187.146 389.646,187.023 389.320 C 186.914 389.033,187.074 388.930,187.420 389.063 C 187.739 389.186,188.000 389.536,188.000 389.843 C 188.000 390.149,188.281 390.400,188.624 390.400 C 188.967 390.400,189.146 390.236,189.022 390.035 C 188.898 389.834,189.112 389.731,189.498 389.805 C 189.884 389.878,190.200 389.976,190.200 390.020 C 190.200 390.354,192.318 390.219,192.777 389.856 C 193.228 389.499,193.284 389.516,193.032 389.935 C 192.642 390.581,194.817 390.454,195.294 389.801 C 195.477 389.552,195.590 389.589,195.594 389.900 C 195.597 390.188,196.110 390.400,196.800 390.400 C 197.460 390.400,198.000 390.220,198.000 390.000 C 198.000 389.780,198.900 389.600,200.000 389.600 C 201.100 389.600,202.000 389.780,202.000 390.000 C 202.000 390.220,202.540 390.400,203.200 390.400 C 203.890 390.400,204.403 390.188,204.406 389.900 C 204.411 389.541,204.495 389.528,204.706 389.855 C 205.003 390.313,210.462 390.425,210.179 389.967 C 210.100 389.838,210.289 389.733,210.600 389.733 C 210.911 389.733,211.072 389.883,210.959 390.067 C 210.845 390.250,211.033 390.400,211.376 390.400 C 211.719 390.400,212.000 390.130,212.000 389.800 C 212.000 389.470,212.180 389.200,212.400 389.200 C 212.620 389.200,212.801 389.335,212.802 389.500 C 212.803 389.665,213.731 389.853,214.865 389.917 C 216.794 390.026,216.890 389.988,216.370 389.317 C 215.874 388.678,215.909 388.681,216.692 389.349 C 217.626 390.144,219.023 389.958,218.687 389.082 C 218.572 388.784,218.792 388.571,219.216 388.571 C 219.615 388.571,219.854 388.713,219.747 388.886 C 219.640 389.059,219.743 389.200,219.976 389.200 C 220.209 389.200,220.400 389.014,220.400 388.786 C 220.400 388.535,220.676 388.499,221.100 388.695 C 221.485 388.873,222.160 388.996,222.600 388.968 C 223.040 388.941,223.895 388.892,224.500 388.859 C 225.105 388.827,225.600 388.600,225.600 388.355 C 225.600 388.086,225.118 387.980,224.387 388.087 C 223.659 388.194,223.320 388.120,223.539 387.901 C 224.069 387.371,226.219 387.705,226.100 388.300 C 225.930 389.148,227.464 388.852,228.174 387.900 C 228.610 387.315,228.775 387.236,228.645 387.673 C 228.505 388.147,228.668 388.330,229.195 388.290 C 229.607 388.259,229.864 388.104,229.766 387.945 C 229.667 387.785,229.756 387.551,229.963 387.423 C 230.170 387.295,230.422 387.507,230.523 387.895 C 230.651 388.383,230.723 388.292,230.760 387.600 C 230.801 386.805,230.891 386.723,231.194 387.200 C 231.509 387.695,231.717 387.712,232.382 387.300 C 233.332 386.712,234.146 386.640,233.816 387.174 C 233.674 387.404,234.052 387.415,234.792 387.202 C 235.457 387.012,236.000 386.955,236.000 387.077 C 236.000 387.198,236.261 387.081,236.581 386.816 C 236.900 386.551,237.519 386.447,237.956 386.586 C 238.724 386.830,240.316 386.195,240.870 385.424 C 241.019 385.217,241.649 384.999,242.270 384.938 C 243.202 384.848,243.260 384.887,242.600 385.164 C 242.160 385.349,241.665 385.422,241.500 385.326 C 241.335 385.231,241.200 385.356,241.200 385.603 C 241.200 385.851,241.515 385.960,241.900 385.846 C 242.285 385.732,243.095 385.520,243.700 385.376 C 244.305 385.231,244.800 384.863,244.800 384.557 C 244.800 384.250,244.980 384.000,245.200 384.000 C 245.420 384.000,245.555 384.225,245.500 384.500 C 245.445 384.775,245.670 384.938,246.000 384.862 C 246.330 384.786,246.937 384.657,247.350 384.575 C 247.762 384.494,248.549 384.132,249.099 383.772 C 249.649 383.412,249.976 383.316,249.826 383.559 C 249.520 384.054,250.102 384.165,250.567 383.700 C 250.732 383.535,251.212 383.378,251.633 383.350 C 252.055 383.323,252.760 383.278,253.200 383.250 C 253.640 383.223,254.000 382.947,254.000 382.637 C 254.000 382.252,254.283 382.148,254.900 382.307 C 255.699 382.513,255.739 382.464,255.255 381.875 C 254.758 381.269,254.819 381.248,255.944 381.640 C 256.914 381.979,257.443 381.937,258.429 381.446 C 259.117 381.102,260.292 380.706,261.040 380.566 C 261.788 380.426,262.400 380.140,262.400 379.932 C 262.400 379.723,262.250 379.645,262.067 379.759 C 261.883 379.872,261.733 379.702,261.733 379.381 C 261.733 378.886,261.840 378.893,262.428 379.426 C 263.194 380.118,266.490 379.006,266.933 377.906 C 267.093 377.508,267.144 377.506,267.168 377.900 C 267.215 378.642,268.000 378.507,268.000 377.757 C 268.000 377.365,268.222 377.200,268.571 377.333 C 268.885 377.454,269.336 377.318,269.573 377.032 C 269.813 376.743,270.451 376.597,271.008 376.704 C 271.722 376.840,271.971 376.737,271.871 376.348 C 271.794 376.046,271.807 375.935,271.899 376.100 C 272.208 376.654,273.200 376.407,273.200 375.776 C 273.200 375.433,273.347 375.244,273.527 375.355 C 273.914 375.594,276.875 374.619,278.123 373.842 C 278.606 373.541,279.502 373.179,280.115 373.036 C 280.847 372.866,281.190 372.555,281.115 372.130 C 281.052 371.774,281.250 371.396,281.556 371.290 C 281.894 371.172,282.002 371.273,281.832 371.548 C 281.678 371.797,281.743 372.000,281.976 372.000 C 282.209 372.000,282.400 371.858,282.400 371.685 C 282.400 371.512,282.805 371.342,283.300 371.307 C 283.795 371.272,284.663 370.694,285.229 370.022 C 286.330 368.715,287.035 368.411,286.652 369.409 C 286.462 369.903,286.565 369.940,287.194 369.603 C 287.698 369.333,287.885 368.944,287.726 368.494 C 287.536 367.953,287.593 367.902,287.984 368.263 C 288.766 368.985,293.367 366.641,293.013 365.700 C 292.774 365.065,293.293 365.053,293.920 365.680 C 294.293 366.053,294.400 366.053,294.400 365.680 C 294.400 365.416,294.715 365.187,295.100 365.172 C 295.699 365.148,295.684 365.094,295.000 364.800 C 294.168 364.442,294.548 364.281,296.175 364.299 C 297.183 364.311,298.135 363.346,297.749 362.703 C 297.569 362.405,297.752 362.444,298.198 362.800 C 298.871 363.337,298.925 363.334,298.713 362.767 C 298.570 362.383,298.691 362.133,299.021 362.133 C 299.320 362.133,299.461 362.301,299.334 362.507 C 299.207 362.712,299.483 362.676,299.948 362.428 C 300.412 362.179,300.749 361.756,300.696 361.488 C 300.638 361.192,300.956 361.050,301.503 361.126 C 302.042 361.201,302.502 360.999,302.646 360.626 C 302.778 360.282,303.127 360.000,303.423 360.000 C 303.718 360.000,304.120 359.714,304.316 359.364 C 304.512 359.014,304.836 358.726,305.036 358.724 C 305.236 358.722,305.367 358.595,305.328 358.443 C 305.288 358.291,305.609 358.139,306.042 358.107 C 307.126 358.025,309.236 356.196,308.776 355.736 C 308.556 355.516,308.716 355.371,309.176 355.371 C 309.597 355.371,309.854 355.513,309.747 355.686 C 309.385 356.271,309.879 356.004,310.891 355.066 C 311.794 354.229,311.831 354.085,311.249 353.678 C 310.727 353.313,310.796 353.289,311.600 353.558 C 312.771 353.949,314.089 352.787,313.745 351.668 C 313.577 351.123,313.625 351.133,314.002 351.722 C 314.598 352.653,315.611 351.929,315.312 350.785 C 315.168 350.236,315.308 350.000,315.777 350.000 C 316.182 350.000,316.334 349.817,316.162 349.538 C 315.985 349.252,316.052 349.185,316.338 349.362 C 317.016 349.781,316.901 350.321,316.100 350.480 C 315.662 350.567,315.565 350.722,315.839 350.896 C 316.514 351.320,318.074 349.664,317.803 348.811 C 317.661 348.362,317.769 348.092,318.086 348.105 C 319.975 348.182,322.412 346.946,321.726 346.259 C 321.583 346.117,321.777 346.000,322.157 346.000 C 322.537 346.000,322.736 345.820,322.600 345.600 C 322.464 345.380,322.621 345.200,322.948 345.200 C 323.275 345.200,324.361 344.435,325.360 343.500 C 326.360 342.565,328.167 340.990,329.376 340.000 C 331.044 338.635,331.532 337.998,331.396 337.365 C 331.298 336.905,331.493 336.185,331.831 335.765 C 332.418 335.033,332.426 335.037,332.021 335.876 C 331.768 336.399,331.746 336.843,331.967 336.979 C 332.450 337.278,333.600 336.115,333.600 335.329 C 333.600 334.950,333.828 334.802,334.194 334.942 C 334.705 335.138,335.952 333.687,335.634 333.267 C 335.579 333.193,335.667 333.013,335.831 332.867 C 335.994 332.720,335.983 332.870,335.805 333.200 C 335.548 333.678,335.588 333.702,336.004 333.317 C 336.433 332.920,336.425 332.706,335.963 332.117 C 335.440 331.450,335.454 331.442,336.165 332.000 C 336.749 332.458,336.970 332.482,337.098 332.100 C 337.191 331.825,337.552 331.600,337.900 331.600 C 338.248 331.600,338.416 331.483,338.273 331.340 C 338.130 331.196,338.318 330.856,338.691 330.583 C 339.291 330.144,339.302 330.005,338.785 329.378 C 338.246 328.725,338.267 328.704,339.047 329.120 C 340.027 329.642,340.588 329.308,339.974 328.568 C 339.655 328.184,339.738 328.111,340.322 328.264 C 341.127 328.474,341.678 327.685,341.757 326.209 C 341.788 325.646,342.088 325.416,342.800 325.409 C 343.519 325.403,343.783 325.196,343.740 324.673 C 343.707 324.274,343.784 324.050,343.910 324.177 C 344.314 324.581,346.000 322.693,346.006 321.830 C 346.011 321.200,346.097 321.133,346.362 321.553 C 346.635 321.983,346.875 321.850,347.447 320.953 C 347.851 320.319,348.366 319.649,348.591 319.465 C 348.823 319.275,348.586 319.222,348.042 319.343 C 347.396 319.486,347.216 319.424,347.490 319.150 C 347.713 318.927,348.171 318.704,348.507 318.655 C 349.276 318.542,350.400 317.627,350.400 317.115 C 350.400 316.902,351.025 315.998,351.788 315.106 C 352.551 314.214,353.081 313.330,352.964 313.142 C 352.848 312.954,352.963 312.800,353.219 312.800 C 353.484 312.800,353.579 312.521,353.438 312.155 C 353.256 311.680,353.361 311.576,353.840 311.760 C 354.306 311.939,354.424 311.838,354.257 311.405 C 354.129 311.072,354.194 310.800,354.400 310.800 C 354.606 310.800,354.676 310.485,354.555 310.100 C 354.367 309.502,354.427 309.513,354.967 310.176 C 355.518 310.853,355.600 310.866,355.600 310.281 C 355.600 309.911,355.909 309.248,356.287 308.807 C 356.664 308.366,357.001 307.509,357.035 306.903 C 357.117 305.417,357.107 305.427,357.877 306.051 C 358.249 306.353,358.430 306.394,358.279 306.142 C 358.128 305.890,358.285 305.576,358.628 305.445 C 358.970 305.313,359.150 305.043,359.028 304.845 C 358.905 304.646,359.074 304.381,359.402 304.254 C 359.731 304.128,360.000 303.649,360.000 303.189 C 360.000 302.729,360.168 302.456,360.372 302.583 C 360.895 302.906,361.251 302.199,360.955 301.426 C 360.749 300.891,360.597 300.868,360.072 301.290 C 359.656 301.624,359.707 301.435,360.219 300.741 C 360.648 300.159,361.154 299.776,361.343 299.891 C 361.531 300.006,361.467 300.235,361.200 300.400 C 360.897 300.587,360.864 300.792,361.112 300.946 C 361.497 301.183,361.926 300.806,362.600 299.638 C 362.836 299.228,362.772 299.163,362.362 299.397 C 362.053 299.573,362.205 299.324,362.700 298.843 C 363.651 297.920,363.900 297.367,363.160 297.825 C 362.851 298.016,362.835 297.874,363.106 297.348 C 363.318 296.937,363.411 296.375,363.313 296.100 C 363.214 295.825,363.373 295.594,363.667 295.587 C 364.458 295.567,365.732 294.353,366.303 293.075 C 366.580 292.456,366.625 292.061,366.403 292.198 C 366.181 292.335,366.000 292.172,366.000 291.836 C 366.000 291.490,366.232 291.314,366.536 291.431 C 367.249 291.704,368.152 290.573,367.849 289.784 C 367.717 289.440,367.768 289.257,367.963 289.377 C 368.157 289.497,368.417 289.332,368.541 289.011 C 368.798 288.340,368.173 287.783,367.864 288.408 C 367.752 288.634,367.714 288.591,367.780 288.310 C 367.846 288.030,368.103 287.845,368.350 287.900 C 368.598 287.955,368.800 287.809,368.800 287.576 C 368.800 287.343,368.961 287.252,369.158 287.374 C 369.355 287.496,369.625 287.312,369.758 286.965 C 370.107 286.055,370.062 285.922,369.500 286.206 C 369.225 286.345,369.286 286.221,369.635 285.930 C 369.984 285.638,370.200 285.191,370.114 284.937 C 370.028 284.682,370.175 284.339,370.441 284.175 C 370.768 283.973,370.819 284.045,370.600 284.400 C 370.397 284.729,370.433 284.827,370.699 284.663 C 371.341 284.266,372.100 281.905,371.484 282.221 C 371.218 282.358,371.431 282.119,371.958 281.690 C 372.570 281.191,372.800 280.724,372.596 280.393 C 372.371 280.030,372.434 279.974,372.806 280.204 C 373.191 280.442,373.266 280.349,373.081 279.866 C 372.940 279.500,372.954 279.199,373.113 279.197 C 373.271 279.195,373.608 278.745,373.862 278.197 C 374.117 277.649,374.181 277.200,374.005 277.200 C 373.829 277.200,373.572 276.905,373.434 276.543 C 373.221 275.990,373.279 275.968,373.801 276.400 C 374.141 276.683,374.535 276.798,374.676 276.657 C 374.818 276.516,374.723 276.400,374.467 276.400 C 374.210 276.400,374.000 276.220,374.000 276.000 C 374.000 275.780,374.270 275.600,374.600 275.600 C 375.161 275.600,375.310 275.168,375.310 273.534 C 375.310 273.088,375.523 272.947,375.955 273.109 C 376.514 273.318,376.527 273.260,376.051 272.675 C 375.581 272.097,375.589 272.000,376.104 272.000 C 376.436 272.000,376.794 271.544,376.901 270.986 C 377.072 270.090,377.017 270.031,376.428 270.486 C 376.061 270.769,376.185 270.595,376.703 270.100 C 377.527 269.312,377.555 269.199,376.922 269.194 C 376.365 269.190,376.429 269.069,377.200 268.669 C 377.870 268.322,378.169 267.862,378.105 267.275 C 378.052 266.794,378.207 266.400,378.448 266.400 C 378.688 266.400,378.788 266.145,378.668 265.833 C 378.548 265.521,378.709 265.167,379.025 265.046 C 379.341 264.924,379.600 264.629,379.600 264.389 C 379.600 264.149,379.450 264.045,379.267 264.159 C 379.083 264.272,378.933 264.120,378.933 263.821 C 378.933 263.521,379.143 263.357,379.400 263.455 C 379.657 263.554,379.891 263.402,379.922 263.117 C 380.115 261.297,380.411 260.242,380.967 259.394 C 381.730 258.230,381.770 257.866,381.100 258.206 C 380.825 258.345,380.877 258.221,381.215 257.930 C 381.553 257.638,381.764 257.085,381.685 256.700 C 381.606 256.315,381.735 256.000,381.971 256.000 C 382.207 256.000,382.400 255.730,382.400 255.400 C 382.400 255.070,382.209 254.800,381.976 254.800 C 381.743 254.800,381.652 254.961,381.774 255.158 C 381.896 255.355,381.722 255.621,381.388 255.749 C 380.894 255.939,380.860 255.836,381.205 255.191 C 381.438 254.756,381.812 254.400,382.038 254.400 C 382.263 254.400,382.337 254.222,382.203 254.005 C 382.063 253.778,382.223 253.711,382.579 253.847 C 383.214 254.091,383.343 253.602,383.302 251.102 C 383.291 250.440,383.449 250.106,383.700 250.262 C 383.965 250.425,384.042 250.134,383.913 249.459 C 383.802 248.877,383.877 248.400,384.079 248.400 C 384.282 248.400,384.336 248.220,384.200 248.000 C 384.064 247.780,384.123 247.600,384.331 247.600 C 384.539 247.600,384.787 247.070,384.882 246.421 C 384.995 245.654,384.906 245.332,384.628 245.498 C 384.392 245.639,384.423 245.477,384.697 245.140 C 384.970 244.803,385.075 244.408,384.930 244.263 C 384.785 244.118,384.885 244.000,385.151 244.000 C 385.708 244.000,385.596 242.744,385.000 242.306 C 384.774 242.140,384.905 242.010,385.300 242.006 C 385.731 242.002,386.000 241.693,386.000 241.200 C 386.000 240.760,385.859 240.400,385.686 240.400 C 385.513 240.400,385.371 240.050,385.371 239.622 C 385.371 239.090,385.514 238.963,385.823 239.219 C 386.461 239.749,386.825 239.239,386.560 238.184 C 386.436 237.691,386.530 237.167,386.768 237.020 C 387.368 236.649,387.312 234.803,386.700 234.788 C 386.404 234.781,386.469 234.619,386.860 234.390 C 387.286 234.142,387.520 233.477,387.520 232.516 C 387.520 231.697,387.718 230.961,387.960 230.880 C 388.202 230.799,388.400 230.484,388.400 230.179 C 388.400 229.821,388.153 229.715,387.700 229.880 C 387.068 230.111,387.073 230.052,387.755 229.275 C 388.380 228.564,388.422 228.308,387.999 227.798 C 387.576 227.289,387.587 227.220,388.061 227.402 C 388.484 227.564,388.660 227.250,388.730 226.211 C 388.789 225.336,388.645 224.800,388.351 224.800 C 388.073 224.800,388.192 224.440,388.638 223.931 C 389.128 223.372,389.186 223.179,388.800 223.390 C 388.312 223.656,388.294 223.617,388.700 223.179 C 389.327 222.503,389.353 220.542,388.739 220.163 C 388.422 219.966,388.515 219.705,389.039 219.322 C 389.668 218.862,389.803 218.241,389.815 215.739 C 389.822 214.075,389.762 212.914,389.680 213.159 C 389.599 213.404,389.367 213.503,389.166 213.379 C 388.727 213.107,388.675 212.380,389.100 212.447 C 390.427 212.657,390.889 211.487,389.900 210.421 C 389.500 209.990,389.500 209.939,389.900 210.165 C 390.546 210.529,390.548 209.908,389.903 209.263 C 389.586 208.946,389.550 208.664,389.803 208.483 C 390.300 208.129,390.324 205.592,389.838 204.838 C 389.614 204.490,389.622 204.366,389.858 204.512 C 390.072 204.644,390.240 204.154,390.240 203.401 C 390.240 202.660,390.074 202.086,389.870 202.127 C 389.667 202.167,389.409 201.950,389.298 201.644 C 389.184 201.332,389.275 201.199,389.506 201.342 C 389.732 201.481,390.015 201.338,390.136 201.024 C 390.256 200.709,390.140 200.350,389.878 200.226 C 389.507 200.051,389.507 199.949,389.878 199.774 C 390.140 199.650,390.256 199.291,390.136 198.976 C 390.015 198.662,389.755 198.504,389.558 198.626 C 389.361 198.748,389.200 198.657,389.200 198.424 C 389.200 198.191,389.434 198.000,389.720 198.000 C 390.046 198.000,390.240 197.487,390.240 196.626 C 390.240 195.785,390.077 195.342,389.820 195.485 C 389.589 195.613,389.625 195.475,389.900 195.179 C 390.175 194.882,390.400 194.485,390.400 194.296 C 390.400 194.107,390.175 194.080,389.900 194.235 C 389.500 194.461,389.500 194.410,389.900 193.979 C 390.461 193.374,390.581 192.641,390.067 192.959 C 389.883 193.072,389.733 192.903,389.733 192.582 C 389.733 192.262,389.883 192.000,390.067 192.000 C 390.250 192.000,390.400 191.711,390.400 191.357 C 390.400 190.919,390.177 190.792,389.700 190.958 C 389.070 191.178,389.064 191.152,389.642 190.699 C 390.227 190.241,390.287 189.722,390.063 187.057 C 390.025 186.613,389.784 186.397,389.462 186.521 C 389.077 186.668,388.977 186.454,389.109 185.763 C 389.210 185.234,389.452 184.800,389.647 184.800 C 389.841 184.800,390.000 184.530,390.000 184.200 C 390.000 183.870,389.775 183.597,389.500 183.594 C 389.107 183.589,389.108 183.519,389.508 183.265 C 390.100 182.889,389.933 181.111,389.286 180.895 C 389.043 180.814,388.944 180.490,389.065 180.174 C 389.186 179.858,389.076 179.600,388.819 179.600 C 388.551 179.600,388.483 179.390,388.657 179.107 C 389.313 178.047,389.064 174.990,388.357 175.426 C 388.161 175.548,388.000 175.367,388.000 175.024 C 388.000 174.681,388.225 174.397,388.500 174.394 C 388.833 174.390,388.800 174.258,388.400 174.000 C 388.000 173.742,387.967 173.610,388.300 173.606 C 388.575 173.603,388.800 173.330,388.800 173.000 C 388.800 172.670,388.609 172.400,388.376 172.400 C 388.143 172.400,388.063 172.578,388.197 172.795 C 388.338 173.024,388.175 173.088,387.811 172.949 C 387.308 172.756,387.278 172.588,387.660 172.127 C 388.442 171.185,388.339 169.473,387.438 168.435 C 386.977 167.905,386.839 167.609,387.131 167.778 C 387.857 168.198,387.459 165.610,386.725 165.145 C 386.301 164.877,386.309 164.811,386.762 164.806 C 387.188 164.801,387.145 164.602,386.584 163.983 C 385.931 163.260,385.924 163.196,386.527 163.427 C 387.364 163.748,387.080 162.785,385.837 161.079 C 385.250 160.276,385.152 159.877,385.487 159.670 C 385.745 159.510,385.889 159.025,385.808 158.590 C 385.727 158.156,385.647 157.654,385.631 157.476 C 385.614 157.298,385.437 157.254,385.237 157.377 C 385.038 157.500,384.976 157.213,385.100 156.738 C 385.255 156.147,385.180 155.965,384.863 156.161 C 384.608 156.318,384.400 156.257,384.400 156.024 C 384.400 155.791,384.602 155.600,384.849 155.600 C 385.142 155.600,385.107 155.364,384.749 154.923 C 384.376 154.463,384.360 154.343,384.700 154.547 C 385.018 154.738,385.200 154.611,385.200 154.197 C 385.200 153.715,384.966 153.610,384.300 153.794 C 383.471 154.022,383.455 153.997,384.100 153.477 C 384.813 152.901,385.091 152.173,384.445 152.572 C 384.250 152.693,384.098 152.568,384.108 152.296 C 384.168 150.644,383.913 149.942,383.154 149.661 C 382.356 149.366,382.347 149.310,382.994 148.663 C 383.549 148.108,383.585 147.864,383.183 147.379 C 382.910 147.050,382.791 146.676,382.919 146.548 C 383.047 146.420,382.803 145.940,382.376 145.482 C 381.505 144.547,381.336 143.794,382.100 144.253 C 382.499 144.493,382.500 144.429,382.103 143.940 C 381.830 143.603,381.727 143.206,381.874 143.059 C 382.021 142.912,381.795 142.510,381.371 142.166 C 380.947 141.822,380.825 141.655,381.100 141.794 C 381.394 141.943,381.600 141.791,381.600 141.424 C 381.600 141.045,381.246 140.798,380.700 140.794 C 379.972 140.789,379.915 140.714,380.400 140.400 C 380.909 140.071,380.890 140.011,380.276 140.006 C 379.878 140.003,379.666 139.817,379.804 139.593 C 379.942 139.370,380.197 139.274,380.370 139.381 C 380.543 139.488,380.600 139.133,380.496 138.593 C 380.393 138.052,380.161 137.700,379.981 137.812 C 379.801 137.923,379.669 137.454,379.689 136.769 C 379.723 135.570,378.982 134.640,378.319 135.050 C 378.144 135.158,378.000 134.956,378.000 134.600 C 378.000 134.244,378.178 134.063,378.395 134.197 C 378.619 134.335,378.691 134.182,378.562 133.846 C 378.434 133.512,378.041 133.340,377.667 133.455 C 377.093 133.632,377.098 133.597,377.700 133.210 C 378.085 132.963,378.400 132.559,378.400 132.313 C 378.400 132.068,378.286 131.981,378.147 132.120 C 377.852 132.415,376.338 130.608,376.476 130.126 C 376.528 129.947,376.342 129.350,376.063 128.800 C 375.587 127.862,375.594 127.848,376.178 128.576 C 376.900 129.477,376.959 129.271,376.401 127.802 C 376.181 127.224,375.814 126.868,375.585 127.009 C 375.316 127.176,375.257 126.913,375.419 126.268 C 375.598 125.554,375.432 125.032,374.835 124.435 C 373.939 123.539,373.720 122.980,374.440 123.425 C 374.745 123.613,374.739 123.433,374.420 122.837 C 374.167 122.364,373.832 122.057,373.676 122.153 C 373.519 122.250,373.033 122.061,372.596 121.734 C 371.802 121.140,371.802 121.138,372.600 121.269 C 373.206 121.368,373.370 121.206,373.277 120.600 C 373.107 119.493,371.829 117.800,371.162 117.800 C 370.859 117.800,370.565 117.440,370.509 117.000 C 370.410 116.227,370.418 116.226,370.734 116.973 C 370.940 117.458,371.163 117.584,371.332 117.310 C 371.752 116.631,371.210 115.637,370.053 114.962 C 369.474 114.625,369.302 114.440,369.671 114.551 C 370.253 114.726,370.287 114.596,369.932 113.576 C 369.706 112.929,369.224 112.386,368.861 112.368 C 368.469 112.350,368.398 112.257,368.686 112.140 C 369.201 111.931,368.645 110.527,367.800 109.906 C 367.580 109.744,367.539 109.609,367.709 109.606 C 367.879 109.603,367.718 109.141,367.350 108.580 C 366.982 108.019,366.444 107.651,366.154 107.762 C 365.863 107.874,365.502 107.765,365.351 107.521 C 365.191 107.262,365.258 107.188,365.511 107.345 C 366.155 107.743,366.505 106.912,366.034 106.103 C 365.809 105.716,365.619 105.563,365.612 105.761 C 365.605 105.960,365.240 105.707,364.800 105.200 C 363.929 104.196,363.775 103.814,364.395 104.197 C 364.619 104.335,364.691 104.182,364.562 103.846 C 364.429 103.498,364.071 103.351,363.701 103.493 C 363.286 103.653,363.167 103.577,363.355 103.273 C 363.735 102.658,362.211 99.256,361.420 98.952 C 361.079 98.822,360.794 98.419,360.787 98.057 C 360.771 97.199,359.849 96.000,359.207 96.000 C 358.803 96.000,358.802 96.121,359.200 96.600 C 359.474 96.930,359.541 97.194,359.349 97.187 C 358.553 97.159,357.520 95.178,358.000 94.599 C 358.675 93.786,357.286 91.484,356.279 91.748 C 355.691 91.901,355.643 91.830,356.026 91.369 C 356.364 90.962,356.370 90.800,356.049 90.800 C 355.802 90.800,355.586 90.395,355.568 89.900 C 355.551 89.405,355.446 89.225,355.335 89.500 C 355.224 89.775,354.856 90.000,354.518 90.000 C 354.028 90.000,354.000 89.882,354.379 89.426 C 354.830 88.882,354.364 87.200,353.762 87.200 C 353.647 87.200,353.681 87.408,353.838 87.662 C 354.015 87.948,353.948 88.015,353.662 87.838 C 353.408 87.681,353.200 87.313,353.200 87.021 C 353.200 86.728,352.840 86.064,352.399 85.544 C 351.917 84.976,351.689 84.862,351.826 85.260 C 351.952 85.622,351.892 86.020,351.693 86.143 C 351.493 86.266,351.363 85.824,351.402 85.162 C 351.451 84.342,351.210 83.772,350.648 83.379 C 350.194 83.060,349.974 82.800,350.160 82.800 C 350.346 82.800,350.283 82.541,350.020 82.224 C 349.757 81.907,349.255 81.757,348.905 81.892 C 348.458 82.064,348.363 81.984,348.586 81.623 C 348.760 81.341,348.744 80.996,348.551 80.855 C 348.358 80.715,347.923 80.060,347.585 79.400 C 346.941 78.144,346.116 77.966,346.317 79.126 C 346.408 79.653,346.353 79.682,346.066 79.256 C 345.863 78.956,345.780 78.396,345.881 78.011 C 346.102 77.167,344.158 74.949,343.348 75.120 C 343.037 75.185,342.471 74.925,342.091 74.542 C 341.436 73.881,341.437 73.859,342.100 74.110 C 342.485 74.256,342.800 74.220,342.800 74.030 C 342.800 73.841,342.519 73.578,342.175 73.446 C 341.831 73.314,341.646 73.048,341.765 72.856 C 341.995 72.484,340.869 71.294,340.200 71.202 C 339.980 71.172,339.843 70.931,339.896 70.667 C 339.949 70.403,339.589 70.009,339.096 69.793 C 338.603 69.577,338.233 69.220,338.274 69.000 C 338.371 68.471,336.722 67.603,336.205 67.912 C 335.982 68.045,336.047 67.849,336.349 67.477 C 336.822 66.894,336.808 66.800,336.249 66.800 C 335.892 66.800,335.600 67.002,335.600 67.249 C 335.600 67.559,335.415 67.544,335.000 67.200 C 334.303 66.622,334.212 66.000,334.824 66.000 C 335.057 66.000,335.119 66.208,334.962 66.462 C 334.785 66.748,334.852 66.815,335.139 66.638 C 335.585 66.362,335.094 64.800,334.562 64.800 C 334.447 64.800,334.449 64.955,334.566 65.145 C 334.683 65.335,334.434 65.470,334.012 65.445 C 333.281 65.402,331.214 63.600,331.896 63.600 C 332.075 63.600,332.545 63.977,332.940 64.438 C 333.334 64.899,333.779 65.144,333.929 64.983 C 334.078 64.822,333.975 64.610,333.700 64.512 C 333.425 64.414,333.200 64.078,333.200 63.767 C 333.200 63.249,332.622 63.043,331.300 63.093 C 331.025 63.103,330.800 62.951,330.800 62.756 C 330.800 62.560,330.980 62.400,331.200 62.400 C 331.917 62.400,331.621 61.661,330.800 61.400 C 330.360 61.260,330.000 60.869,330.000 60.530 C 330.000 60.112,329.779 59.999,329.312 60.178 C 328.934 60.324,328.756 60.311,328.916 60.151 C 329.332 59.735,327.596 58.000,326.764 58.000 C 326.380 58.000,325.975 57.775,325.864 57.500 C 325.711 57.123,325.552 57.148,325.218 57.600 C 324.871 58.070,324.831 57.962,325.031 57.100 C 325.222 56.277,325.136 56.000,324.690 56.000 C 324.362 56.000,323.996 55.627,323.876 55.170 C 323.692 54.465,323.533 54.408,322.824 54.787 C 322.364 55.033,322.012 55.092,322.042 54.917 C 322.207 53.932,321.923 53.200,321.376 53.200 C 321.033 53.200,320.856 53.033,320.982 52.829 C 321.108 52.625,320.849 52.343,320.406 52.202 C 319.963 52.061,319.600 51.759,319.600 51.530 C 319.600 51.302,319.321 51.222,318.979 51.353 C 318.638 51.484,318.460 51.427,318.583 51.227 C 318.796 50.884,318.020 50.156,315.997 48.800 C 315.505 48.470,314.878 47.987,314.605 47.726 C 314.222 47.360,313.999 47.360,313.631 47.726 C 313.261 48.093,313.219 48.026,313.446 47.431 C 313.681 46.813,313.603 46.713,313.049 46.926 C 312.638 47.084,312.457 47.031,312.603 46.795 C 313.058 46.060,312.373 45.525,311.688 46.081 C 311.161 46.507,311.103 46.506,311.360 46.079 C 311.749 45.432,310.264 44.069,308.826 43.752 C 306.768 43.298,306.400 43.138,306.400 42.693 C 306.400 42.371,306.538 42.378,306.880 42.720 C 307.144 42.984,307.634 43.200,307.969 43.200 C 308.388 43.200,308.294 43.001,307.667 42.562 C 307.118 42.177,306.378 42.019,305.803 42.164 C 305.278 42.295,304.739 42.224,304.604 42.006 C 304.469 41.788,304.608 41.705,304.913 41.822 C 305.233 41.945,305.467 41.781,305.467 41.434 C 305.467 40.577,304.487 40.316,304.069 41.063 C 303.763 41.609,303.600 41.567,302.835 40.746 C 302.351 40.226,301.740 39.792,301.477 39.782 C 301.215 39.772,301.051 39.528,301.114 39.240 C 301.279 38.481,300.367 37.527,299.715 37.777 C 299.409 37.895,299.260 37.826,299.385 37.624 C 299.603 37.271,298.115 36.558,297.500 36.721 C 297.335 36.764,297.200 36.530,297.200 36.200 C 297.200 35.827,296.822 35.600,296.200 35.600 C 295.650 35.600,295.197 35.375,295.194 35.100 C 295.190 34.767,295.058 34.800,294.800 35.200 C 294.488 35.683,294.411 35.619,294.406 34.876 C 294.403 34.364,294.222 34.063,294.000 34.200 C 293.780 34.336,293.600 34.237,293.600 33.980 C 293.600 33.685,293.241 33.603,292.625 33.758 C 292.088 33.893,291.539 33.824,291.404 33.606 C 291.259 33.373,291.455 33.305,291.879 33.442 C 292.377 33.603,292.293 33.424,291.607 32.865 C 290.822 32.226,290.492 32.155,290.032 32.528 C 289.556 32.914,289.498 32.873,289.713 32.300 C 290.019 31.482,289.848 31.439,288.715 32.045 C 287.984 32.437,287.908 32.393,288.093 31.688 C 288.302 30.888,287.111 30.000,285.830 30.000 C 285.537 30.000,285.079 29.736,284.811 29.413 C 284.543 29.090,284.206 28.841,284.062 28.860 C 283.918 28.879,283.620 28.853,283.400 28.801 C 283.180 28.750,282.820 28.666,282.600 28.615 C 282.380 28.564,281.840 28.492,281.400 28.455 C 280.791 28.404,280.730 28.306,281.143 28.044 C 281.488 27.825,281.536 27.607,281.275 27.446 C 281.049 27.307,280.597 27.460,280.271 27.786 C 279.747 28.311,279.647 28.301,279.417 27.701 C 279.193 27.115,279.101 27.103,278.752 27.611 C 278.448 28.054,278.412 27.970,278.610 27.272 C 278.854 26.406,277.946 25.702,276.956 25.990 C 276.809 26.033,276.548 25.840,276.375 25.560 C 276.125 25.156,275.939 25.153,275.466 25.545 C 275.004 25.928,274.805 25.931,274.574 25.558 C 274.375 25.235,274.446 25.181,274.790 25.394 C 275.134 25.606,275.239 25.527,275.109 25.156 C 274.989 24.812,274.409 24.625,273.588 24.667 C 272.664 24.713,272.434 24.624,272.831 24.373 C 273.368 24.032,273.322 23.971,272.433 23.850 C 272.232 23.823,271.938 23.671,271.781 23.514 C 271.623 23.357,271.157 23.409,270.744 23.630 C 270.128 23.960,269.926 23.858,269.625 23.067 C 269.279 22.155,268.571 21.817,266.009 21.337 C 265.463 21.235,264.901 20.963,264.759 20.733 C 264.581 20.446,264.414 20.454,264.226 20.757 C 264.076 21.001,263.738 21.197,263.476 21.194 C 263.190 21.190,263.239 21.033,263.600 20.800 C 263.930 20.587,264.065 20.387,263.900 20.356 C 263.372 20.257,263.018 20.139,262.247 19.802 C 261.798 19.606,261.200 19.657,260.766 19.929 C 260.223 20.268,259.966 20.268,259.757 19.930 C 259.573 19.633,259.657 19.588,260.000 19.800 C 260.346 20.014,260.427 19.967,260.238 19.662 C 260.081 19.408,259.618 19.200,259.209 19.200 C 258.098 19.200,257.175 18.764,257.426 18.358 C 257.548 18.161,257.322 17.985,256.924 17.967 C 256.526 17.948,255.803 17.889,255.319 17.835 C 254.834 17.781,254.528 17.884,254.639 18.064 C 254.751 18.244,254.574 18.288,254.246 18.162 C 253.918 18.037,253.749 17.677,253.870 17.362 C 254.027 16.954,253.894 16.866,253.404 17.054 C 253.007 17.206,252.555 17.082,252.329 16.758 C 252.031 16.332,251.892 16.317,251.737 16.696 C 251.584 17.074,251.394 17.051,250.945 16.602 C 250.620 16.278,249.964 16.072,249.487 16.144 C 249.010 16.217,248.355 16.012,248.032 15.689 C 247.516 15.173,247.409 15.192,247.151 15.851 C 246.863 16.584,246.755 16.509,246.646 15.500 C 246.616 15.212,246.128 15.034,245.496 15.081 C 244.893 15.126,244.400 14.987,244.400 14.773 C 244.400 14.559,243.953 14.465,243.407 14.565 C 242.860 14.664,242.309 14.577,242.183 14.372 C 241.848 13.831,239.854 13.916,239.199 14.500 C 238.726 14.922,238.717 14.896,239.139 14.336 C 239.752 13.521,239.156 13.033,237.996 13.401 C 237.541 13.546,237.200 13.471,237.200 13.227 C 237.200 12.992,237.009 12.800,236.776 12.800 C 236.543 12.800,236.464 12.980,236.600 13.200 C 236.736 13.420,236.657 13.600,236.424 13.600 C 236.191 13.600,236.000 13.399,236.000 13.153 C 236.000 12.904,235.647 12.799,235.200 12.916 C 234.761 13.031,234.308 12.975,234.195 12.792 C 234.082 12.609,233.415 12.532,232.713 12.621 C 232.007 12.711,231.309 12.576,231.150 12.319 C 230.749 11.670,229.487 11.550,229.079 12.122 C 228.818 12.489,228.692 12.484,228.535 12.098 C 228.423 11.821,228.167 11.697,227.966 11.821 C 227.765 11.945,227.600 11.902,227.600 11.724 C 227.600 11.223,224.703 11.183,224.109 11.676 C 223.818 11.917,223.465 11.998,223.324 11.857 C 223.182 11.716,223.277 11.600,223.533 11.600 C 224.909 11.600,223.720 10.984,222.171 10.894 C 220.794 10.814,220.416 10.913,220.632 11.294 C 220.855 11.690,220.805 11.696,220.397 11.319 C 220.027 10.976,219.657 10.956,219.109 11.249 C 218.486 11.582,218.302 11.511,218.134 10.870 C 217.884 9.914,215.280 9.726,214.930 10.638 C 214.812 10.944,214.552 11.094,214.352 10.970 C 214.151 10.846,214.072 10.608,214.175 10.441 C 214.278 10.273,213.966 10.167,213.481 10.205 C 212.997 10.242,212.312 10.095,211.960 9.878 C 211.105 9.350,209.074 9.863,209.452 10.512 C 209.609 10.780,209.361 10.670,208.900 10.267 C 207.998 9.476,205.247 9.423,204.706 10.185 C 204.516 10.453,204.410 10.423,204.406 10.100 C 204.403 9.812,203.890 9.600,203.200 9.600 C 202.540 9.600,202.000 9.780,202.000 10.000 C 202.000 10.220,201.100 10.400,200.000 10.400 C 198.900 10.400,198.000 10.220,198.000 10.000 C 198.000 9.780,197.460 9.600,196.800 9.600 C 196.110 9.600,195.597 9.812,195.594 10.100 C 195.590 10.411,195.477 10.448,195.294 10.199 C 194.817 9.546,192.642 9.419,193.032 10.065 C 193.279 10.475,193.219 10.501,192.777 10.174 C 192.024 9.619,188.115 9.490,187.794 10.011 M170.400 12.420 C 170.400 12.578,169.948 12.793,169.397 12.899 C 168.650 13.041,168.495 12.968,168.790 12.612 C 169.220 12.094,170.400 11.953,170.400 12.420 M302.000 39.068 C 302.000 39.579,303.535 40.998,303.801 40.732 C 303.909 40.625,303.548 40.114,302.998 39.599 C 302.449 39.083,302.000 38.844,302.000 39.068 M309.200 44.424 C 309.200 44.657,309.378 44.737,309.595 44.603 C 309.824 44.461,309.888 44.627,309.746 44.996 C 309.611 45.347,309.472 45.582,309.437 45.517 C 309.402 45.453,309.133 45.085,308.838 44.700 C 308.481 44.234,308.452 44.000,308.751 44.000 C 308.998 44.000,309.200 44.191,309.200 44.424 M337.447 69.021 C 337.316 69.362,337.375 69.539,337.577 69.414 C 337.779 69.289,338.068 69.387,338.220 69.632 C 338.393 69.912,338.219 70.024,337.752 69.934 C 336.937 69.777,336.453 68.400,337.213 68.400 C 337.476 68.400,337.580 68.676,337.447 69.021 M345.368 77.652 C 345.052 78.162,344.400 77.674,344.400 76.927 C 344.400 76.419,344.511 76.394,344.996 76.796 C 345.323 77.068,345.491 77.453,345.368 77.652 M357.206 92.996 C 357.396 92.879,357.525 93.137,357.492 93.571 C 357.408 94.687,356.384 93.787,356.446 92.651 C 356.484 91.968,356.529 91.939,356.677 92.505 C 356.778 92.893,357.016 93.114,357.206 92.996 M358.267 94.667 C 357.797 95.136,357.979 95.428,358.777 95.488 C 359.300 95.528,359.482 95.359,359.334 94.973 C 359.097 94.356,358.693 94.240,358.267 94.667 M376.800 130.302 C 376.800 130.522,377.070 130.926,377.400 131.200 C 377.735 131.478,378.000 131.521,378.000 131.298 C 378.000 131.078,377.730 130.674,377.400 130.400 C 377.065 130.122,376.800 130.079,376.800 130.302 M21.249 136.761 C 20.946 136.953,20.821 137.311,20.972 137.555 C 21.124 137.800,21.057 138.000,20.824 138.000 C 20.591 138.000,20.400 137.640,20.400 137.200 C 20.400 136.702,20.665 136.402,21.100 136.406 C 21.654 136.411,21.685 136.485,21.249 136.761 M29.600 282.453 C 29.600 282.623,29.150 282.345,28.600 281.835 C 28.050 281.325,27.600 280.795,27.600 280.657 C 27.600 280.518,28.050 280.797,28.600 281.275 C 29.150 281.753,29.600 282.283,29.600 282.453 M364.400 295.714 C 363.743 296.249,363.422 297.202,363.900 297.197 C 364.065 297.195,364.408 296.745,364.662 296.197 C 364.917 295.649,365.097 295.206,365.062 295.213 C 365.028 295.220,364.730 295.445,364.400 295.714 M45.536 309.669 C 45.977 310.247,45.939 310.309,45.251 310.129 C 44.760 310.001,44.540 309.700,44.677 309.343 C 44.799 309.026,44.928 308.818,44.963 308.883 C 44.998 308.947,45.256 309.301,45.536 309.669 M351.991 313.900 C 351.967 314.709,350.503 316.089,350.195 315.593 C 349.986 315.253,350.035 315.174,350.338 315.362 C 350.601 315.524,350.800 315.413,350.800 315.104 C 350.800 314.805,351.016 314.344,351.280 314.080 C 351.836 313.524,352.004 313.482,351.991 313.900 M57.789 325.040 C 58.436 326.026,58.434 326.059,57.765 325.684 C 57.377 325.467,57.018 325.000,56.965 324.645 C 56.835 323.754,56.998 323.833,57.789 325.040 M307.630 356.963 C 307.364 357.284,306.806 357.521,306.390 357.489 C 305.529 357.424,305.614 357.275,306.893 356.608 C 307.991 356.035,308.284 356.176,307.630 356.963 " stroke="none" fill="#848484" fill-rule="evenodd"></path><path id="path1" d="M187.200 9.945 C 187.200 10.135,186.713 10.237,186.118 10.171 C 184.689 10.014,183.614 10.566,184.607 10.947 C 184.989 11.094,185.549 11.009,185.851 10.758 C 186.253 10.424,186.400 10.422,186.400 10.751 C 186.400 11.455,186.959 11.278,187.507 10.400 C 187.803 9.926,187.843 9.600,187.603 9.600 C 187.382 9.600,187.200 9.755,187.200 9.945 M198.000 10.000 C 198.000 10.220,198.900 10.400,200.000 10.400 C 201.100 10.400,202.000 10.220,202.000 10.000 C 202.000 9.780,201.100 9.600,200.000 9.600 C 198.900 9.600,198.000 9.780,198.000 10.000 M208.400 9.751 C 208.400 9.834,208.705 10.149,209.077 10.451 C 209.449 10.753,209.628 10.790,209.474 10.534 C 209.321 10.278,209.421 9.977,209.698 9.866 C 209.974 9.754,209.795 9.649,209.300 9.632 C 208.805 9.614,208.400 9.668,208.400 9.751 M213.283 10.163 C 213.347 10.198,213.694 10.450,214.053 10.723 C 214.581 11.125,214.748 11.113,214.922 10.660 C 215.070 10.273,214.832 10.100,214.152 10.100 C 213.610 10.100,213.219 10.128,213.283 10.163 M216.030 10.381 C 215.647 10.618,215.663 10.739,216.103 10.907 C 216.416 11.028,216.896 10.988,217.170 10.819 C 217.553 10.582,217.537 10.461,217.097 10.293 C 216.784 10.172,216.304 10.212,216.030 10.381 M218.046 10.476 C 217.986 11.363,218.494 11.649,219.219 11.136 C 219.699 10.796,219.683 10.762,219.125 10.940 C 218.703 11.075,218.383 10.902,218.271 10.478 C 218.104 9.843,218.090 9.843,218.046 10.476 M169.039 12.357 C 168.405 13.057,168.423 13.085,169.386 12.901 C 170.404 12.706,170.700 12.233,170.053 11.833 C 169.863 11.715,169.406 11.951,169.039 12.357 M257.600 18.800 C 257.930 19.013,258.470 19.188,258.800 19.188 C 259.333 19.188,259.333 19.145,258.800 18.800 C 258.470 18.587,257.930 18.412,257.600 18.412 C 257.067 18.412,257.067 18.455,257.600 18.800 M259.817 19.572 C 259.544 20.014,260.175 20.492,260.544 20.122 C 260.925 19.742,260.854 19.200,260.424 19.200 C 260.217 19.200,259.944 19.368,259.817 19.572 M269.600 23.133 C 269.600 23.707,270.054 23.954,270.673 23.717 C 271.157 23.531,271.168 23.426,270.734 23.150 C 270.050 22.717,269.600 22.710,269.600 23.133 M120.973 26.844 C 120.588 27.467,121.058 27.719,121.814 27.296 C 122.416 26.959,122.420 26.893,121.857 26.677 C 121.510 26.544,121.112 26.619,120.973 26.844 M278.650 27.013 C 278.502 27.399,278.475 27.809,278.591 27.924 C 278.706 28.039,278.806 27.878,278.813 27.567 C 278.823 27.119,278.929 27.136,279.318 27.647 C 279.763 28.232,279.866 28.234,280.392 27.671 C 280.905 27.121,280.894 27.078,280.297 27.307 C 279.884 27.466,279.485 27.323,279.270 26.940 C 278.959 26.383,278.889 26.391,278.650 27.013 M288.000 31.787 C 288.000 32.144,288.235 32.285,288.598 32.146 C 288.926 32.019,289.096 31.755,288.974 31.558 C 288.625 30.993,288.000 31.140,288.000 31.787 M109.928 32.164 C 109.339 32.472,108.725 32.605,108.564 32.462 C 108.403 32.318,108.401 32.425,108.559 32.700 C 108.718 32.975,108.657 33.223,108.424 33.250 C 107.409 33.370,107.254 33.412,107.033 33.633 C 106.599 34.068,108.196 33.894,108.758 33.445 C 109.066 33.200,109.966 32.691,110.758 32.314 C 111.551 31.936,111.930 31.622,111.600 31.616 C 111.270 31.610,110.518 31.857,109.928 32.164 M301.000 39.200 C 300.757 39.592,300.817 39.649,301.577 39.750 C 301.785 39.778,302.332 40.205,302.793 40.700 C 303.783 41.763,303.846 41.778,304.140 41.013 C 304.264 40.690,304.165 40.302,303.921 40.151 C 303.652 39.985,303.589 40.059,303.762 40.338 C 304.314 41.232,303.248 40.788,302.471 39.800 C 301.606 38.700,301.369 38.603,301.000 39.200 M305.445 41.673 C 305.643 41.994,305.496 42.047,304.966 41.844 C 304.385 41.623,304.311 41.665,304.661 42.018 C 304.971 42.330,305.348 42.357,305.805 42.101 C 306.437 41.748,306.438 41.700,305.823 41.464 C 305.379 41.294,305.254 41.363,305.445 41.673 M93.047 42.621 C 92.884 43.046,92.965 43.144,93.305 42.932 C 93.577 42.762,94.041 42.586,94.337 42.541 C 95.352 42.388,95.332 42.000,94.309 42.000 C 93.746 42.000,93.178 42.279,93.047 42.621 M306.400 42.811 C 306.400 43.158,307.953 43.781,308.201 43.532 C 308.278 43.455,307.905 43.185,307.371 42.933 C 306.837 42.681,306.400 42.626,306.400 42.811 M308.838 44.700 C 309.133 45.085,309.402 45.453,309.437 45.517 C 309.472 45.582,309.611 45.347,309.746 44.996 C 309.888 44.627,309.824 44.461,309.595 44.603 C 309.378 44.737,309.200 44.657,309.200 44.424 C 309.200 44.191,308.998 44.000,308.751 44.000 C 308.452 44.000,308.481 44.234,308.838 44.700 M85.003 47.847 C 84.587 48.151,84.451 48.400,84.700 48.400 C 84.949 48.400,85.276 48.201,85.426 47.957 C 85.626 47.634,85.774 47.634,85.974 47.957 C 86.170 48.275,86.440 48.259,86.930 47.900 C 87.550 47.446,87.528 47.395,86.686 47.347 C 86.176 47.318,85.419 47.543,85.003 47.847 M69.700 61.843 C 69.700 62.579,69.801 62.726,70.044 62.343 C 70.491 61.636,70.495 60.800,70.050 60.800 C 69.858 60.800,69.700 61.269,69.700 61.843 M332.407 64.500 C 332.867 64.995,333.600 65.421,334.035 65.446 C 334.953 65.499,334.693 65.090,333.718 64.947 C 333.356 64.894,332.902 64.569,332.710 64.225 C 332.518 63.881,332.182 63.600,331.965 63.600 C 331.747 63.600,331.946 64.005,332.407 64.500 M65.867 64.667 C 65.469 65.065,65.545 66.000,65.975 66.000 C 66.181 66.000,66.323 65.640,66.290 65.200 C 66.222 64.296,66.229 64.305,65.867 64.667 M64.498 66.100 C 64.278 66.375,63.970 67.018,63.813 67.529 L 63.528 68.457 64.534 67.583 C 65.087 67.102,65.444 66.459,65.327 66.154 C 65.066 65.475,65.001 65.471,64.498 66.100 M334.400 66.351 C 334.400 67.084,335.494 67.654,335.728 67.043 C 335.850 66.726,335.676 66.361,335.342 66.233 C 334.530 65.921,334.400 65.938,334.400 66.351 M336.876 69.100 C 336.962 69.550,337.401 69.814,338.105 69.840 C 338.985 69.873,339.111 69.774,338.746 69.335 C 338.400 68.919,338.163 68.899,337.738 69.252 C 337.294 69.620,337.232 69.581,337.434 69.057 C 337.580 68.676,337.487 68.400,337.213 68.400 C 336.954 68.400,336.802 68.715,336.876 69.100 M342.071 74.522 C 342.817 75.274,343.600 75.417,343.600 74.800 C 343.600 74.580,343.435 74.400,343.233 74.400 C 343.031 74.400,342.536 74.275,342.133 74.122 C 341.446 73.862,341.443 73.888,342.071 74.522 M344.400 76.927 C 344.400 77.674,345.052 78.162,345.368 77.652 C 345.491 77.453,345.323 77.068,344.996 76.796 C 344.511 76.394,344.400 76.419,344.400 76.927 M51.600 80.400 C 51.050 80.830,50.757 81.186,50.949 81.191 C 51.141 81.196,51.074 81.470,50.800 81.800 C 49.858 82.935,50.625 82.398,51.944 81.000 C 53.382 79.476,53.195 79.152,51.600 80.400 M351.342 85.362 C 351.374 85.891,351.524 86.247,351.675 86.154 C 352.024 85.938,351.921 84.400,351.557 84.400 C 351.407 84.400,351.311 84.833,351.342 85.362 M44.084 90.642 C 43.661 91.100,43.674 91.200,44.161 91.200 C 44.840 91.200,45.364 90.547,44.907 90.270 C 44.738 90.168,44.368 90.335,44.084 90.642 M356.446 92.651 C 356.384 93.787,357.408 94.687,357.492 93.571 C 357.525 93.137,357.396 92.879,357.206 92.996 C 357.016 93.114,356.778 92.893,356.677 92.505 C 356.529 91.939,356.484 91.968,356.446 92.651 M357.802 94.796 C 357.534 95.230,358.787 97.167,359.349 97.187 C 359.541 97.194,359.474 96.930,359.200 96.600 C 358.799 96.116,358.808 95.999,359.251 95.994 C 359.694 95.989,359.688 95.917,359.219 95.620 C 358.900 95.418,358.464 95.360,358.251 95.492 C 358.028 95.630,357.972 95.449,358.119 95.066 C 358.399 94.338,358.193 94.164,357.802 94.796 M32.208 109.124 C 31.884 109.969,32.097 109.997,32.900 109.215 C 33.457 108.672,33.481 108.533,33.017 108.533 C 32.697 108.533,32.332 108.799,32.208 109.124 M31.478 111.056 C 31.179 111.355,31.506 112.000,31.957 112.000 C 32.127 112.000,32.267 111.730,32.267 111.400 C 32.267 110.773,31.914 110.619,31.478 111.056 M370.523 116.962 C 370.565 117.381,370.916 117.771,371.302 117.827 C 371.688 117.884,371.901 117.763,371.774 117.558 C 371.648 117.354,371.391 117.282,371.203 117.398 C 371.014 117.515,370.767 117.293,370.653 116.905 C 370.477 116.305,370.457 116.314,370.523 116.962 M28.302 117.533 C 28.144 118.136,28.268 118.255,28.885 118.094 C 29.315 117.981,29.517 117.777,29.334 117.640 C 29.150 117.503,28.888 117.251,28.751 117.079 C 28.614 116.908,28.412 117.113,28.302 117.533 M372.600 121.681 C 373.430 122.169,373.533 122.175,373.700 121.740 C 373.755 121.597,373.350 121.419,372.800 121.345 C 371.860 121.218,371.848 121.239,372.600 121.681 M376.107 128.967 C 376.361 129.425,376.528 129.947,376.476 130.126 C 376.425 130.305,376.747 130.914,377.191 131.480 C 377.636 132.045,378.000 132.326,378.000 132.103 C 378.000 131.880,377.722 131.467,377.382 131.185 C 377.042 130.903,376.854 130.436,376.964 130.149 C 377.075 129.861,376.981 129.512,376.755 129.372 C 376.530 129.233,376.431 128.897,376.535 128.626 C 376.639 128.355,376.481 128.133,376.183 128.133 C 375.754 128.133,375.739 128.305,376.107 128.967 M21.800 132.000 C 21.664 132.220,21.660 132.400,21.790 132.400 C 21.921 132.400,21.824 132.781,21.575 133.246 C 21.222 133.907,21.234 134.055,21.631 133.923 C 21.910 133.830,22.204 133.269,22.283 132.677 C 22.431 131.570,22.236 131.295,21.800 132.000 M377.581 133.264 C 377.109 133.599,377.132 133.633,377.705 133.448 C 378.277 133.264,378.366 133.395,378.178 134.144 C 378.009 134.820,378.118 135.067,378.587 135.067 C 378.993 135.067,379.087 134.927,378.845 134.685 C 378.634 134.474,378.551 134.073,378.659 133.792 C 378.930 133.084,378.283 132.767,377.581 133.264 M20.400 137.200 C 20.400 137.640,20.591 138.000,20.824 138.000 C 21.057 138.000,21.124 137.800,20.972 137.555 C 20.821 137.311,20.946 136.953,21.249 136.761 C 21.685 136.485,21.654 136.411,21.100 136.406 C 20.665 136.402,20.400 136.702,20.400 137.200 M378.616 136.774 C 378.464 137.019,378.600 137.098,378.944 136.966 C 379.279 136.838,379.613 137.015,379.724 137.378 C 379.888 137.914,379.909 137.908,379.859 137.341 C 379.789 136.545,378.984 136.178,378.616 136.774 M16.868 147.577 C 16.527 148.554,16.558 148.714,17.046 148.527 C 17.370 148.403,17.538 148.205,17.421 148.087 C 17.303 147.970,17.394 147.648,17.623 147.372 C 17.881 147.062,17.894 146.782,17.658 146.636 C 17.449 146.507,17.093 146.930,16.868 147.577 M382.670 148.961 C 382.541 149.297,382.773 149.604,383.251 149.729 C 383.857 149.888,383.946 149.817,383.626 149.432 C 383.396 149.154,383.325 148.808,383.470 148.663 C 383.615 148.518,383.543 148.400,383.309 148.400 C 383.076 148.400,382.789 148.652,382.670 148.961 M384.400 156.024 C 384.400 156.257,384.608 156.318,384.863 156.161 C 385.180 155.965,385.255 156.147,385.100 156.738 C 384.976 157.213,385.038 157.500,385.237 157.377 C 385.835 157.008,385.647 155.600,385.000 155.600 C 384.670 155.600,384.400 155.791,384.400 156.024 M385.200 159.924 C 385.200 160.101,385.450 160.589,385.756 161.007 C 386.061 161.425,386.212 162.044,386.092 162.383 C 385.971 162.722,386.015 162.871,386.190 162.713 C 386.713 162.240,386.774 160.415,386.263 160.512 C 386.009 160.560,385.845 160.375,385.900 160.100 C 385.955 159.825,385.820 159.600,385.600 159.600 C 385.380 159.600,385.200 159.746,385.200 159.924 M387.639 172.153 C 387.289 172.575,387.305 172.755,387.708 172.909 C 388.022 173.030,388.259 172.806,388.293 172.356 C 388.361 171.455,388.248 171.419,387.639 172.153 M389.109 185.763 C 388.992 186.376,389.090 186.664,389.378 186.553 C 389.900 186.353,390.116 184.800,389.622 184.800 C 389.441 184.800,389.210 185.234,389.109 185.763 M10.072 186.069 C 10.142 186.546,10.470 187.010,10.800 187.099 C 11.299 187.234,11.306 187.196,10.842 186.871 C 10.535 186.656,10.394 186.193,10.529 185.840 C 10.664 185.488,10.588 185.200,10.360 185.200 C 10.131 185.200,10.002 185.591,10.072 186.069 M389.789 187.883 C 389.165 189.326,389.484 190.758,390.179 189.634 C 390.308 189.426,390.221 189.137,389.987 188.992 C 389.692 188.809,389.707 188.553,390.038 188.155 C 390.300 187.839,390.421 187.487,390.306 187.373 C 390.192 187.259,389.959 187.488,389.789 187.883 M389.200 198.424 C 389.200 198.657,389.365 198.745,389.566 198.621 C 389.767 198.497,390.023 198.621,390.134 198.898 C 390.256 199.201,390.349 199.122,390.368 198.700 C 390.386 198.315,390.130 198.000,389.800 198.000 C 389.470 198.000,389.200 198.191,389.200 198.424 M390.000 201.157 C 390.000 201.427,389.820 201.536,389.600 201.400 C 389.380 201.264,389.200 201.333,389.200 201.553 C 389.200 201.773,389.381 202.065,389.603 202.202 C 390.052 202.480,390.642 201.308,390.249 200.916 C 390.112 200.779,390.000 200.887,390.000 201.157 M9.600 212.200 C 9.600 212.530,9.763 212.800,9.963 212.800 C 10.162 212.800,10.240 213.205,10.135 213.700 C 9.964 214.511,9.991 214.528,10.404 213.879 C 10.732 213.365,10.741 213.010,10.435 212.642 C 10.200 212.359,10.125 212.008,10.270 211.863 C 10.415 211.718,10.323 211.600,10.067 211.600 C 9.810 211.600,9.600 211.870,9.600 212.200 M388.800 212.621 C 388.800 212.669,389.066 213.221,389.391 213.848 L 389.983 214.988 389.891 213.761 C 389.826 212.887,388.800 211.815,388.800 212.621 M389.043 217.433 C 388.720 218.273,388.718 218.267,389.345 218.267 C 389.677 218.267,389.815 217.980,389.698 217.533 C 389.464 216.636,389.355 216.619,389.043 217.433 M13.352 237.781 C 13.082 238.485,13.473 239.202,14.124 239.194 C 14.463 239.190,14.452 239.094,14.086 238.862 C 13.803 238.682,13.688 238.236,13.829 237.868 C 13.970 237.501,13.971 237.200,13.830 237.200 C 13.690 237.200,13.475 237.461,13.352 237.781 M14.406 242.300 C 14.410 243.256,14.533 243.609,14.746 243.274 C 15.054 242.787,14.900 240.800,14.553 240.800 C 14.469 240.800,14.403 241.475,14.406 242.300 M16.560 249.300 C 16.680 249.690,16.568 250.000,16.307 250.000 C 15.964 250.000,15.958 250.118,16.285 250.445 C 17.097 251.257,17.571 250.648,16.944 249.600 C 16.614 249.050,16.442 248.915,16.560 249.300 M16.800 252.300 C 16.800 252.491,17.061 252.996,17.380 253.424 C 17.940 254.173,17.952 254.168,17.732 253.294 C 17.504 252.391,16.800 251.640,16.800 252.300 M381.205 255.191 C 380.860 255.836,380.894 255.939,381.388 255.749 C 381.722 255.621,381.905 255.370,381.795 255.192 C 381.685 255.014,381.821 254.777,382.098 254.666 C 382.474 254.514,382.478 254.455,382.114 254.432 C 381.847 254.414,381.438 254.756,381.205 255.191 M18.162 256.767 C 18.257 257.335,18.349 257.935,18.367 258.100 C 18.385 258.265,18.576 258.400,18.790 258.400 C 19.035 258.400,19.046 258.048,18.819 257.451 C 18.598 256.868,18.607 256.353,18.843 256.117 C 19.088 255.872,19.004 255.733,18.609 255.733 C 18.166 255.733,18.039 256.027,18.162 256.767 M20.043 261.748 C 19.694 262.168,19.753 262.477,20.294 263.067 C 20.682 263.491,20.832 263.591,20.626 263.288 C 20.373 262.917,20.437 262.621,20.826 262.376 C 21.259 262.101,21.272 262.011,20.876 262.006 C 20.588 262.003,20.464 261.820,20.600 261.600 C 20.965 261.009,20.569 261.114,20.043 261.748 M23.467 270.667 C 22.949 271.184,23.209 271.572,23.900 271.313 C 24.536 271.074,24.545 271.121,24.000 271.825 C 23.444 272.543,23.452 272.560,24.105 272.047 C 24.646 271.623,24.704 271.367,24.356 270.947 C 23.832 270.316,23.821 270.312,23.467 270.667 M374.000 276.024 C 374.000 276.257,373.822 276.337,373.605 276.203 C 373.378 276.063,373.311 276.223,373.447 276.579 C 373.578 276.921,373.857 277.200,374.066 277.200 C 374.276 277.200,374.336 277.020,374.200 276.800 C 374.064 276.580,374.143 276.400,374.376 276.400 C 374.609 276.400,374.800 276.220,374.800 276.000 C 374.800 275.780,374.620 275.600,374.400 275.600 C 374.180 275.600,374.000 275.791,374.000 276.024 M27.436 281.051 C 27.311 281.376,27.381 281.536,27.590 281.406 C 27.799 281.277,28.337 281.537,28.785 281.985 C 29.233 282.433,29.600 282.652,29.600 282.472 C 29.600 281.705,27.671 280.438,27.436 281.051 M368.800 287.600 C 368.800 287.820,368.598 287.955,368.350 287.900 C 368.103 287.845,367.846 288.030,367.780 288.310 C 367.714 288.590,367.748 288.646,367.856 288.432 C 367.964 288.219,368.310 288.144,368.626 288.265 C 368.978 288.400,369.200 288.237,369.200 287.843 C 369.200 287.489,369.110 287.200,369.000 287.200 C 368.890 287.200,368.800 287.380,368.800 287.600 M364.098 295.345 C 363.603 295.590,363.263 295.973,363.344 296.195 C 363.426 296.418,363.314 296.960,363.097 297.400 C 362.822 297.958,362.829 298.079,363.122 297.800 C 363.354 297.580,363.601 297.136,363.671 296.814 C 363.742 296.492,364.160 295.913,364.600 295.527 C 365.502 294.738,365.400 294.700,364.098 295.345 M360.219 300.741 C 359.690 301.458,359.645 301.633,360.080 301.283 C 360.433 300.999,360.800 300.909,360.896 301.083 C 360.991 301.257,361.018 301.187,360.957 300.926 C 360.895 300.665,361.051 300.383,361.303 300.299 C 361.570 300.210,361.602 300.050,361.380 299.914 C 361.171 299.787,360.648 300.159,360.219 300.741 M357.170 305.767 C 356.875 306.098,356.921 307.600,357.226 307.600 C 357.458 307.600,357.536 307.420,357.400 307.200 C 357.264 306.980,357.324 306.800,357.534 306.800 C 357.743 306.800,358.007 306.560,358.119 306.267 C 358.267 305.882,357.451 305.452,357.170 305.767 M43.490 307.855 C 43.138 308.424,44.201 309.855,45.164 310.106 C 45.845 310.284,45.889 310.212,45.490 309.572 C 45.163 309.049,44.942 308.971,44.735 309.305 C 44.443 309.777,44.342 309.621,43.905 308.020 C 43.808 307.664,43.647 307.600,43.490 307.855 M354.529 310.100 C 354.664 310.485,354.590 310.800,354.364 310.800 C 354.138 310.800,354.078 311.003,354.232 311.251 C 354.420 311.557,354.636 311.479,354.897 311.013 C 355.163 310.538,355.127 310.179,354.783 309.861 C 354.393 309.502,354.337 309.555,354.529 310.100 M46.107 311.578 C 45.633 312.337,46.118 313.216,46.693 312.640 C 46.825 312.508,46.678 312.397,46.367 312.394 C 45.891 312.389,45.889 312.332,46.349 312.040 C 46.651 311.849,46.830 311.490,46.747 311.242 C 46.663 310.988,46.384 311.134,46.107 311.578 M351.273 314.087 C 351.013 314.347,350.800 314.805,350.800 315.104 C 350.800 315.432,350.602 315.528,350.300 315.347 C 349.901 315.107,349.900 315.171,350.297 315.660 C 350.570 315.997,350.660 316.431,350.497 316.624 C 350.333 316.816,350.513 316.734,350.896 316.441 C 351.278 316.149,351.488 315.742,351.361 315.537 C 351.235 315.332,351.352 314.898,351.623 314.573 C 352.226 313.845,351.929 313.431,351.273 314.087 M348.211 318.600 C 347.303 319.342,347.213 319.522,347.831 319.360 C 348.276 319.244,348.857 318.800,349.123 318.374 C 349.734 317.396,349.663 317.414,348.211 318.600 M50.804 318.605 C 51.191 319.071,51.434 319.104,51.863 318.748 C 52.169 318.494,52.315 318.182,52.188 318.055 C 52.061 317.927,51.789 318.088,51.584 318.412 C 51.332 318.810,51.210 318.839,51.206 318.500 C 51.203 318.225,50.998 318.000,50.751 318.000 C 50.442 318.000,50.459 318.189,50.804 318.605 M56.965 324.645 C 57.018 325.000,57.377 325.467,57.765 325.684 C 58.434 326.059,58.436 326.026,57.789 325.040 C 56.998 323.833,56.835 323.754,56.965 324.645 M341.856 325.478 C 341.475 325.859,341.547 326.800,341.957 326.800 C 342.448 326.800,342.842 325.673,342.438 325.424 C 342.259 325.313,341.996 325.337,341.856 325.478 M57.975 327.154 C 58.522 328.175,58.764 328.238,58.630 327.322 C 58.575 326.949,58.303 326.568,58.026 326.475 C 57.634 326.345,57.623 326.495,57.975 327.154 M64.046 332.876 C 63.994 333.644,64.628 334.142,65.800 334.252 C 66.351 334.304,66.263 334.192,65.516 333.892 C 64.919 333.652,64.355 333.174,64.262 332.828 C 64.119 332.298,64.086 332.306,64.046 332.876 M65.600 335.023 C 65.600 335.070,66.072 335.417,66.649 335.795 C 67.246 336.186,67.563 336.263,67.384 335.974 C 67.158 335.609,67.264 335.539,67.755 335.727 C 68.133 335.872,68.344 335.834,68.226 335.642 C 68.044 335.347,65.600 334.772,65.600 335.023 M331.577 336.043 C 331.236 336.680,331.245 336.998,331.613 337.343 C 331.984 337.691,332.053 337.657,331.904 337.200 C 331.796 336.870,331.870 336.285,332.068 335.900 C 332.266 335.515,332.338 335.200,332.228 335.200 C 332.118 335.200,331.825 335.579,331.577 336.043 M69.257 338.323 C 69.541 338.695,69.802 339.052,69.836 339.116 C 69.870 339.180,69.985 338.901,70.091 338.497 C 70.225 337.982,70.052 337.744,69.511 337.703 C 68.847 337.653,68.812 337.740,69.257 338.323 M72.846 340.924 C 72.818 341.366,72.606 341.547,72.300 341.389 C 72.025 341.247,72.250 341.502,72.800 341.956 C 73.350 342.411,73.969 342.786,74.176 342.791 C 74.384 342.796,74.264 342.575,73.910 342.300 C 73.557 342.025,73.183 341.440,73.080 341.000 C 72.920 340.316,72.886 340.305,72.846 340.924 M74.979 342.917 C 74.826 343.312,74.813 343.747,74.951 343.884 C 75.088 344.021,75.218 343.788,75.240 343.367 C 75.270 342.787,75.347 342.843,75.557 343.596 C 75.717 344.171,75.948 344.407,76.104 344.155 C 76.253 343.915,76.123 343.376,75.816 342.959 C 75.285 342.238,75.243 342.236,74.979 342.917 M81.200 348.624 C 81.200 349.404,82.230 349.592,82.288 348.823 C 82.317 348.444,82.084 348.133,81.770 348.133 C 81.457 348.133,81.200 348.354,81.200 348.624 M317.606 348.400 C 317.629 349.175,318.276 349.365,318.855 348.767 C 319.464 348.137,319.443 348.094,318.555 348.145 C 318.030 348.175,317.603 348.290,317.606 348.400 M316.162 349.538 C 316.331 349.812,316.193 350.000,315.824 350.000 C 315.481 350.000,315.200 350.255,315.200 350.567 C 315.200 350.878,314.975 351.220,314.700 351.326 C 314.425 351.432,314.609 351.498,315.110 351.473 C 315.676 351.445,315.945 351.234,315.822 350.914 C 315.714 350.631,315.889 350.400,316.213 350.400 C 316.912 350.400,316.989 349.764,316.338 349.362 C 316.052 349.185,315.985 349.252,316.162 349.538 M306.893 356.580 C 305.604 357.292,305.534 357.425,306.409 357.491 C 306.836 357.523,307.290 357.378,307.420 357.168 C 307.549 356.958,307.821 356.889,308.023 357.014 C 308.225 357.139,308.284 356.962,308.153 356.621 C 308.022 356.279,307.889 356.018,307.857 356.039 C 307.826 356.061,307.392 356.304,306.893 356.580 M92.576 357.173 C 93.208 357.872,94.000 357.971,94.000 357.353 C 94.000 357.243,93.820 357.264,93.600 357.400 C 93.380 357.536,93.200 357.476,93.200 357.266 C 93.200 357.057,92.895 356.769,92.522 356.626 C 91.923 356.396,91.929 356.459,92.576 357.173 M295.800 363.200 C 295.664 363.420,295.754 363.600,296.000 363.600 C 296.246 363.600,296.334 363.783,296.196 364.007 C 296.058 364.230,295.814 364.332,295.653 364.233 C 295.493 364.134,295.100 364.218,294.781 364.420 C 294.325 364.709,294.388 364.789,295.076 364.794 C 295.944 364.800,296.507 364.267,296.653 363.300 C 296.744 362.703,296.150 362.633,295.800 363.200 M106.023 365.828 C 106.280 366.138,106.662 366.285,106.872 366.156 C 107.338 365.868,106.992 365.475,106.166 365.354 C 105.684 365.283,105.654 365.383,106.023 365.828 M111.771 368.355 C 111.771 368.747,112.003 369.067,112.286 369.067 C 112.569 369.067,112.800 368.939,112.800 368.782 C 112.800 368.626,112.569 368.306,112.286 368.071 C 111.899 367.751,111.771 367.821,111.771 368.355 M285.754 369.375 C 285.633 369.691,285.297 369.859,285.007 369.747 C 284.718 369.636,284.378 369.712,284.252 369.917 C 284.125 370.121,284.457 370.240,284.988 370.182 C 286.143 370.055,286.800 369.690,286.800 369.176 C 286.800 368.585,285.999 368.737,285.754 369.375 M124.603 374.795 C 124.458 375.030,124.637 375.084,125.045 374.927 C 125.547 374.735,125.644 374.806,125.404 375.194 C 125.186 375.546,125.231 375.628,125.538 375.438 C 125.792 375.281,126.000 374.983,126.000 374.776 C 126.000 374.277,124.914 374.292,124.603 374.795 M269.628 376.967 C 269.360 377.289,268.885 377.454,268.571 377.333 C 268.257 377.213,268.000 377.314,268.000 377.557 C 268.000 377.801,268.225 377.994,268.500 377.987 C 269.157 377.971,270.602 376.869,270.328 376.594 C 270.210 376.477,269.895 376.644,269.628 376.967 M130.211 377.342 C 131.282 378.077,133.276 378.428,133.083 377.848 C 133.001 377.601,132.462 377.394,131.887 377.387 C 131.311 377.379,130.711 377.244,130.553 377.087 C 130.396 376.929,130.077 376.800,129.844 376.800 C 129.612 376.800,129.777 377.044,130.211 377.342 M138.600 380.001 C 138.488 380.182,138.712 380.281,139.098 380.222 C 139.484 380.162,139.949 380.313,140.130 380.557 C 140.349 380.850,140.410 380.809,140.309 380.435 C 140.138 379.802,138.914 379.491,138.600 380.001 M240.928 385.316 C 240.814 385.502,240.828 385.761,240.960 385.893 C 241.092 386.025,241.200 385.913,241.200 385.643 C 241.200 385.373,241.335 385.231,241.500 385.326 C 241.665 385.422,242.160 385.354,242.600 385.176 C 243.266 384.907,243.211 384.863,242.268 384.916 C 241.645 384.951,241.042 385.131,240.928 385.316 M162.941 385.870 C 163.096 386.140,162.911 386.402,162.505 386.486 C 161.910 386.610,161.933 386.669,162.657 386.868 C 163.525 387.106,163.749 386.381,163.014 385.712 C 162.826 385.540,162.793 385.611,162.941 385.870 M173.817 387.972 C 173.691 388.177,173.798 388.475,174.055 388.634 C 174.364 388.825,174.416 388.749,174.207 388.412 C 173.967 388.022,174.232 387.940,175.317 388.066 C 176.102 388.158,176.656 388.090,176.548 387.916 C 176.275 387.475,174.097 387.519,173.817 387.972 M223.445 387.928 C 223.333 388.108,223.773 388.177,224.421 388.082 C 225.154 387.975,225.600 388.086,225.600 388.378 C 225.600 388.636,225.783 388.734,226.007 388.596 C 226.230 388.458,226.309 388.177,226.183 387.972 C 225.899 387.513,223.723 387.478,223.445 387.928 M182.121 389.327 C 181.984 389.549,182.079 389.598,182.338 389.438 C 182.592 389.281,182.800 389.365,182.800 389.625 C 182.800 389.975,182.939 389.982,183.337 389.652 C 183.632 389.407,183.992 389.295,184.137 389.403 C 184.282 389.512,184.306 389.476,184.192 389.325 C 183.862 388.890,182.391 388.891,182.121 389.327 M198.000 390.000 C 198.000 390.220,198.900 390.400,200.000 390.400 C 201.100 390.400,202.000 390.220,202.000 390.000 C 202.000 389.780,201.100 389.600,200.000 389.600 C 198.900 389.600,198.000 389.780,198.000 390.000 M209.200 390.041 C 208.319 390.299,208.358 390.328,209.530 390.280 C 210.262 390.250,210.929 390.115,211.013 389.979 C 211.214 389.653,210.434 389.680,209.200 390.041 " stroke="none" fill="#7c7c7c" fill-rule="evenodd"></path><path id="path2" d="" stroke="none" fill="#848880" fill-rule="evenodd"></path><path id="path3" d="" stroke="none" fill="#848880" fill-rule="evenodd"></path><path id="path4" d="" stroke="none" fill="#848880" fill-rule="evenodd"></path></g></svg>