<svg id="svg" version="1.1" xmlns="http://www.w3.org/2000/svg" xmlns:xlink="http://www.w3.org/1999/xlink" width="400" height="400" viewBox="0, 0, 400,400"><g id="svgg"><path id="path0" d="M340.400 58.525 C 340.400 58.594,340.985 59.179,341.700 59.825 L 343.000 61.000 341.825 59.700 C 340.730 58.488,340.400 58.216,340.400 58.525 M36.333 87.245 C 35.967 87.623,35.767 88.034,35.890 88.157 C 36.013 88.279,35.683 88.745,35.157 89.191 C 34.314 89.905,34.295 89.976,35.000 89.788 C 35.641 89.618,35.618 89.671,34.889 90.054 C 34.025 90.507,33.866 91.488,34.683 91.322 C 34.894 91.279,35.067 91.502,35.067 91.816 C 35.067 92.243,34.934 92.277,34.540 91.950 C 34.027 91.524,33.200 92.852,33.200 94.102 C 33.200 94.350,32.958 94.222,32.662 93.817 C 32.150 93.116,32.113 93.124,31.889 93.981 C 31.760 94.476,31.507 94.790,31.327 94.680 C 31.147 94.570,30.985 95.127,30.967 95.917 C 30.948 96.708,30.726 97.425,30.472 97.509 C 29.412 97.863,28.389 99.070,28.313 100.055 C 28.257 100.797,28.060 101.044,27.651 100.887 C 27.274 100.743,27.172 100.830,27.360 101.136 C 27.521 101.395,27.290 102.067,26.848 102.629 C 26.406 103.191,26.133 103.881,26.241 104.161 C 26.348 104.442,26.124 104.926,25.741 105.236 C 25.148 105.718,25.096 105.718,25.385 105.238 C 25.615 104.857,25.575 104.768,25.262 104.962 C 25.008 105.119,24.800 105.597,24.800 106.024 C 24.800 106.494,24.524 106.802,24.100 106.806 C 23.502 106.811,23.487 106.869,24.000 107.200 C 24.400 107.458,24.433 107.590,24.100 107.594 C 23.825 107.597,23.600 107.960,23.600 108.400 C 23.600 108.893,23.331 109.202,22.900 109.206 C 22.352 109.211,22.319 109.287,22.745 109.558 C 23.160 109.821,23.172 109.943,22.795 110.068 C 22.523 110.159,22.300 110.721,22.300 111.317 C 22.300 111.969,22.081 112.400,21.750 112.400 C 21.448 112.400,21.200 112.724,21.200 113.120 C 21.200 113.516,20.975 114.082,20.700 114.379 C 20.294 114.817,20.312 114.857,20.800 114.594 C 21.130 114.416,20.993 114.718,20.496 115.265 C 19.999 115.812,19.689 116.355,19.806 116.473 C 19.923 116.590,19.745 116.914,19.410 117.192 C 19.074 117.470,18.800 118.107,18.800 118.606 C 18.800 119.106,18.530 119.618,18.200 119.745 C 17.849 119.879,17.600 120.479,17.600 121.187 C 17.600 121.999,17.401 122.400,17.000 122.400 C 16.569 122.400,16.400 122.840,16.400 123.957 C 16.400 125.000,16.194 125.594,15.775 125.754 C 15.431 125.886,15.249 126.155,15.370 126.352 C 15.492 126.548,15.321 126.934,14.991 127.208 C 14.556 127.568,14.507 127.848,14.814 128.217 C 15.117 128.582,15.101 128.814,14.758 129.026 C 14.432 129.227,14.381 129.154,14.600 128.800 C 14.814 128.454,14.767 128.373,14.462 128.562 C 14.208 128.719,14.000 129.382,14.000 130.036 C 14.000 130.724,13.747 131.322,13.400 131.455 C 13.033 131.596,12.800 132.202,12.800 133.014 C 12.800 133.745,12.530 134.613,12.200 134.943 C 11.870 135.273,11.600 136.186,11.600 136.971 C 11.600 137.870,11.409 138.400,11.085 138.400 C 10.758 138.400,10.540 139.021,10.489 140.100 C 10.378 142.466,10.210 143.222,9.726 143.532 C 9.496 143.679,9.181 144.205,9.027 144.700 C 8.872 145.195,8.594 145.600,8.408 145.600 C 8.004 145.600,8.087 146.383,8.573 147.162 C 8.812 147.544,8.778 147.634,8.467 147.442 C 8.154 147.248,8.055 147.540,8.152 148.375 C 8.296 149.604,7.601 150.642,6.999 150.097 C 6.819 149.933,6.807 150.035,6.973 150.322 C 7.216 150.742,7.458 150.723,8.223 150.222 C 9.114 149.638,9.200 149.655,9.635 150.500 C 9.995 151.201,9.991 151.300,9.616 150.947 C 8.537 149.933,6.799 151.195,6.806 152.988 C 6.810 154.062,6.929 154.416,7.161 154.049 C 7.363 153.730,7.723 153.629,8.014 153.808 C 8.393 154.043,8.448 153.847,8.238 153.009 C 8.019 152.137,8.083 151.946,8.534 152.119 C 8.958 152.282,9.054 152.111,8.900 151.470 C 8.753 150.858,8.820 150.719,9.126 151.000 C 9.728 151.554,392.142 151.354,391.799 150.799 C 391.417 150.180,392.243 150.329,392.780 150.976 C 393.043 151.293,393.520 151.452,393.839 151.330 C 394.416 151.108,393.900 149.976,393.262 150.060 C 392.383 150.176,391.600 149.938,391.600 149.553 C 391.600 149.304,391.953 149.199,392.400 149.316 C 393.293 149.549,393.598 147.893,392.757 147.374 C 392.459 147.189,392.403 147.378,392.584 147.950 C 392.793 148.609,392.690 148.793,392.127 148.768 C 391.703 148.750,391.609 148.652,391.902 148.534 C 392.179 148.423,392.286 148.140,392.141 147.905 C 391.996 147.671,392.186 147.253,392.563 146.978 C 392.976 146.676,393.086 146.377,392.841 146.225 C 392.617 146.087,392.158 146.508,391.820 147.162 C 391.482 147.815,390.979 148.477,390.703 148.633 C 390.300 148.861,390.300 148.810,390.700 148.379 C 390.975 148.082,391.200 147.516,391.200 147.120 C 391.200 146.724,391.368 146.400,391.573 146.400 C 391.779 146.400,391.932 145.876,391.913 145.236 C 391.889 144.364,391.727 144.130,391.271 144.305 C 390.821 144.478,390.731 144.358,390.926 143.849 C 391.081 143.444,391.030 143.258,390.801 143.399 C 390.561 143.548,390.510 143.149,390.668 142.358 C 390.875 141.326,390.815 141.138,390.362 141.396 C 389.910 141.655,389.897 141.613,390.295 141.184 C 390.690 140.758,390.650 140.487,390.095 139.832 C 389.434 139.054,389.435 139.041,390.100 139.556 C 390.702 140.022,390.800 140.007,390.800 139.449 C 390.800 139.092,390.530 138.800,390.200 138.800 C 389.768 138.800,389.600 138.358,389.600 137.220 C 389.600 136.239,389.375 135.514,389.006 135.307 C 388.680 135.125,388.349 134.395,388.271 133.686 C 388.194 132.977,387.982 132.263,387.801 132.098 C 387.620 131.934,387.619 132.070,387.800 132.400 C 387.981 132.730,387.980 132.865,387.798 132.701 C 387.617 132.536,387.417 131.926,387.355 131.345 C 387.189 129.784,386.858 129.117,386.393 129.404 C 386.166 129.545,386.006 129.511,386.037 129.330 C 386.248 128.116,385.924 125.600,385.557 125.600 C 385.314 125.600,385.222 125.879,385.353 126.221 C 385.489 126.577,385.422 126.737,385.195 126.597 C 384.978 126.463,384.800 125.728,384.800 124.964 C 384.800 124.154,384.571 123.487,384.250 123.364 C 383.947 123.248,383.700 122.707,383.700 122.163 C 383.700 121.619,383.408 120.850,383.050 120.455 C 382.693 120.060,382.400 119.237,382.400 118.626 C 382.400 117.864,382.232 117.579,381.867 117.719 C 381.573 117.832,381.333 117.679,381.333 117.379 C 381.333 117.080,381.497 116.936,381.696 117.059 C 381.896 117.183,381.821 116.860,381.530 116.342 C 381.238 115.824,380.775 115.256,380.500 115.080 C 380.225 114.904,380.000 114.229,380.000 113.580 C 380.000 112.907,379.805 112.443,379.545 112.500 C 379.055 112.608,378.302 110.482,378.638 109.939 C 378.750 109.758,378.607 109.699,378.321 109.809 C 377.990 109.935,377.780 109.659,377.745 109.049 C 377.688 108.051,376.601 106.716,375.500 106.294 C 375.097 106.139,374.939 105.756,375.070 105.253 C 375.279 104.455,374.104 102.000,373.514 102.000 C 373.341 102.000,373.200 101.809,373.200 101.576 C 373.200 101.343,373.425 101.282,373.700 101.441 C 373.990 101.608,374.060 101.576,373.867 101.364 C 373.683 101.164,373.332 101.000,373.087 101.000 C 372.841 101.000,372.643 100.460,372.646 99.800 C 372.650 99.140,372.403 98.503,372.097 98.384 C 371.791 98.266,371.572 98.024,371.609 97.847 C 371.647 97.670,371.177 97.002,370.564 96.363 C 369.815 95.581,369.639 95.192,370.025 95.175 C 370.341 95.161,370.183 94.982,369.674 94.778 C 369.165 94.574,368.866 94.217,369.009 93.986 C 369.436 93.295,368.371 92.359,367.444 92.610 C 366.697 92.812,366.681 92.788,367.300 92.399 C 367.685 92.158,368.000 91.759,368.000 91.513 C 368.000 91.268,367.886 91.181,367.747 91.320 C 367.608 91.459,367.135 91.116,366.695 90.558 C 366.128 89.836,365.773 89.667,365.469 89.971 C 364.895 90.545,364.279 90.520,364.638 89.938 C 364.821 89.643,364.747 89.585,364.435 89.779 C 364.166 89.945,364.042 90.332,364.159 90.639 C 364.342 91.115,340.510 91.197,200.817 91.199 C 110.861 91.201,36.995 91.304,36.671 91.428 C 36.008 91.683,35.383 90.982,35.956 90.627 C 36.159 90.502,36.237 90.064,36.130 89.655 C 36.013 89.208,36.189 88.813,36.568 88.668 C 36.915 88.534,37.200 88.594,37.200 88.800 C 37.200 89.006,37.470 89.071,37.800 88.945 C 38.130 88.818,38.400 88.559,38.400 88.370 C 38.400 88.180,38.099 88.141,37.731 88.282 C 37.244 88.469,37.124 88.374,37.294 87.933 C 37.676 86.935,37.060 86.494,36.333 87.245 M34.974 93.242 C 34.625 93.807,34.000 93.660,34.000 93.013 C 34.000 92.656,34.235 92.515,34.598 92.654 C 34.926 92.781,35.096 93.045,34.974 93.242 M9.490 148.400 C 9.524 148.857,9.304 149.200,8.975 149.200 C 8.275 149.200,8.234 148.726,8.880 148.080 C 9.144 147.816,9.376 147.600,9.395 147.600 C 9.414 147.600,9.457 147.960,9.490 148.400 M391.826 151.558 C 391.704 151.755,391.874 152.019,392.202 152.146 C 392.531 152.272,392.800 152.861,392.800 153.454 C 392.800 154.048,392.918 154.415,393.063 154.270 C 393.208 154.125,393.554 154.195,393.831 154.426 C 394.376 154.878,394.419 153.886,393.878 153.345 C 393.725 153.192,393.603 152.872,393.606 152.633 C 393.609 152.395,393.806 152.470,394.044 152.800 C 394.403 153.299,394.435 153.277,394.238 152.667 C 394.107 152.264,394.000 151.849,394.000 151.744 C 394.000 151.639,393.832 151.656,393.628 151.783 C 393.423 151.909,393.142 151.830,393.004 151.607 C 392.694 151.104,392.121 151.081,391.826 151.558 M6.178 155.235 C 6.047 155.447,6.089 155.594,6.270 155.563 C 6.452 155.531,6.690 155.540,6.800 155.583 C 7.650 155.915,8.316 155.847,8.162 155.445 C 7.937 154.860,6.504 154.708,6.178 155.235 M394.290 155.854 C 393.957 156.393,394.483 158.180,395.000 158.267 C 395.220 158.303,395.400 157.826,395.400 157.205 C 395.400 156.584,395.280 156.150,395.134 156.241 C 394.988 156.331,394.796 156.188,394.707 155.922 C 394.602 155.607,394.458 155.583,394.290 155.854 M4.548 162.592 C 4.412 162.945,4.413 163.347,4.551 163.484 C 4.688 163.621,4.803 163.388,4.806 162.967 C 4.811 162.325,4.876 162.298,5.200 162.800 C 5.433 163.161,5.590 163.210,5.594 162.924 C 5.604 162.146,4.815 161.896,4.548 162.592 M395.949 163.477 C 395.642 163.855,395.607 164.029,395.870 163.872 C 396.144 163.708,396.416 163.884,396.523 164.295 C 396.638 164.735,396.725 164.586,396.754 163.900 C 396.808 162.618,396.694 162.558,395.949 163.477 M2.351 174.761 C 2.672 174.965,2.772 175.322,2.589 175.617 C 2.386 175.947,2.438 176.024,2.738 175.838 C 3.451 175.398,3.284 174.399,2.500 174.406 C 1.946 174.411,1.915 174.485,2.351 174.761 " stroke="none" fill="#fcf43f" fill-rule="evenodd"></path><path id="path1" d="M191.750 1.387 C 191.549 1.910,190.301 2.000,183.206 2.000 C 176.309 2.000,174.813 2.102,174.400 2.600 C 174.023 3.054,173.003 3.200,170.200 3.200 C 167.562 3.200,166.368 3.357,166.045 3.746 C 165.789 4.055,164.465 4.382,162.992 4.500 C 161.562 4.615,160.165 4.897,159.888 5.127 C 159.611 5.357,158.578 5.602,157.592 5.672 C 156.422 5.756,155.835 5.974,155.900 6.300 C 155.973 6.664,155.195 6.800,153.043 6.800 C 150.783 6.800,150.031 6.942,149.855 7.400 C 149.690 7.831,149.015 8.000,147.455 8.000 C 145.896 8.000,145.221 8.169,145.055 8.600 C 144.903 8.998,144.274 9.200,143.189 9.200 C 142.213 9.200,141.651 9.359,141.797 9.595 C 141.934 9.816,141.785 9.893,141.461 9.768 C 141.142 9.646,140.762 9.738,140.617 9.973 C 140.472 10.208,139.843 10.400,139.219 10.400 C 138.581 10.400,137.985 10.662,137.855 11.000 C 137.698 11.411,137.055 11.600,135.813 11.600 C 134.468 11.600,134.000 11.755,134.000 12.200 C 134.000 12.723,132.447 13.067,131.089 12.844 C 130.918 12.816,130.673 13.064,130.546 13.396 C 130.419 13.728,129.920 14.000,129.437 14.000 C 128.955 14.000,128.318 14.225,128.021 14.500 C 127.584 14.906,127.537 14.887,127.771 14.400 C 127.947 14.033,127.837 14.072,127.486 14.500 C 127.170 14.885,126.639 15.200,126.305 15.200 C 125.971 15.200,125.474 15.470,125.200 15.800 C 124.926 16.130,124.094 16.400,123.351 16.400 C 122.417 16.400,122.000 16.585,122.000 17.000 C 122.000 17.431,121.560 17.600,120.443 17.600 C 119.428 17.600,118.805 17.809,118.655 18.200 C 118.521 18.551,117.921 18.800,117.213 18.800 C 116.401 18.800,116.000 18.999,116.000 19.400 C 116.000 19.746,115.638 20.000,115.144 20.000 C 114.673 20.000,114.088 20.267,113.844 20.593 C 113.600 20.918,112.980 21.247,112.467 21.322 C 111.954 21.398,111.404 21.670,111.245 21.928 C 111.085 22.185,110.483 22.435,109.906 22.483 C 109.329 22.531,108.889 22.751,108.928 22.972 C 108.968 23.193,108.408 23.470,107.684 23.587 C 106.961 23.704,106.421 23.980,106.484 24.200 C 106.548 24.420,106.150 24.662,105.600 24.738 C 105.050 24.815,104.456 25.130,104.280 25.438 C 104.104 25.747,103.721 26.000,103.429 26.000 C 103.137 26.000,102.674 26.270,102.400 26.600 C 102.126 26.930,101.564 27.200,101.151 27.200 C 100.738 27.200,100.400 27.470,100.400 27.800 C 100.400 28.205,99.995 28.400,99.157 28.400 C 98.217 28.400,97.970 28.546,98.145 29.000 C 98.318 29.451,98.077 29.600,97.175 29.600 C 96.477 29.600,95.879 29.851,95.745 30.200 C 95.618 30.530,95.264 30.800,94.957 30.800 C 94.651 30.800,94.400 31.070,94.400 31.400 C 94.400 31.730,94.145 32.000,93.833 32.000 C 93.522 32.000,93.176 32.225,93.065 32.500 C 92.925 32.847,92.854 32.820,92.832 32.411 C 92.811 32.034,92.376 32.286,91.623 33.111 C 90.975 33.820,90.255 34.400,90.023 34.400 C 89.790 34.400,89.597 34.625,89.594 34.900 C 89.589 35.264,89.494 35.251,89.241 34.852 C 88.949 34.392,88.838 34.397,88.547 34.883 C 88.356 35.202,87.570 35.808,86.800 36.231 C 86.030 36.654,85.256 37.225,85.080 37.500 C 84.904 37.775,84.480 38.000,84.137 38.000 C 83.760 38.000,83.601 38.227,83.735 38.576 C 83.888 38.973,83.626 39.190,82.887 39.276 C 82.226 39.353,81.627 39.781,81.315 40.400 C 81.030 40.967,80.804 41.140,80.793 40.800 C 80.778 40.313,80.674 40.332,80.243 40.900 C 79.951 41.285,79.507 41.600,79.256 41.600 C 79.005 41.600,78.800 41.849,78.800 42.153 C 78.800 42.458,78.422 42.806,77.960 42.926 C 77.484 43.051,77.237 43.336,77.389 43.583 C 77.538 43.823,77.511 43.994,77.330 43.963 C 77.148 43.931,76.865 43.949,76.700 44.003 C 76.535 44.056,76.175 44.131,75.900 44.168 C 75.625 44.206,75.445 44.453,75.500 44.718 C 75.555 44.983,75.240 45.200,74.800 45.200 C 74.360 45.200,74.000 45.380,74.000 45.600 C 74.000 46.127,72.515 47.600,71.984 47.600 C 71.295 47.600,69.200 49.312,69.200 49.875 C 69.200 50.164,68.999 50.355,68.753 50.300 C 68.507 50.245,68.250 50.539,68.181 50.952 C 68.112 51.366,67.852 51.906,67.604 52.152 C 67.270 52.484,67.219 52.393,67.409 51.800 L 67.665 51.000 67.004 51.800 C 66.641 52.240,66.163 52.551,65.942 52.490 C 65.721 52.430,65.662 52.577,65.811 52.817 C 65.964 53.065,65.708 53.351,65.218 53.479 C 64.698 53.615,64.438 53.923,64.565 54.253 C 64.752 54.740,64.340 54.975,63.514 54.852 C 63.357 54.829,63.332 55.077,63.457 55.405 C 63.615 55.816,63.425 56.000,62.843 56.000 C 62.259 56.000,62.000 56.253,62.000 56.824 C 62.000 57.277,61.819 57.535,61.597 57.398 C 61.376 57.261,61.086 57.431,60.954 57.775 C 60.822 58.119,60.464 58.400,60.157 58.400 C 59.851 58.400,59.600 58.670,59.600 59.000 C 59.600 59.330,59.330 59.600,59.000 59.600 C 58.670 59.600,58.392 59.825,58.383 60.100 C 58.374 60.375,57.834 61.042,57.183 61.581 C 56.532 62.121,56.000 62.790,56.000 63.069 C 56.000 63.347,55.774 63.488,55.497 63.382 C 55.221 63.276,54.816 63.596,54.597 64.095 C 54.379 64.593,53.795 65.178,53.300 65.395 C 52.805 65.612,52.400 66.107,52.400 66.495 C 52.400 66.883,52.175 67.155,51.900 67.100 C 51.625 67.045,51.445 67.225,51.500 67.500 C 51.555 67.775,51.341 68.000,51.024 68.000 C 50.707 68.000,50.317 68.211,50.158 68.468 C 49.962 68.785,50.089 68.851,50.555 68.673 C 50.963 68.516,51.142 68.570,50.997 68.805 C 50.863 69.022,50.398 69.200,49.964 69.200 C 49.164 69.200,48.305 70.681,48.709 71.362 C 48.827 71.561,48.716 71.595,48.462 71.438 C 48.208 71.281,47.977 71.343,47.950 71.576 C 47.923 71.809,47.877 72.171,47.850 72.380 C 47.823 72.589,47.549 72.994,47.241 73.280 C 46.778 73.711,46.732 73.697,46.971 73.200 C 47.147 72.833,47.037 72.872,46.686 73.300 C 46.370 73.685,45.907 74.000,45.656 74.000 C 45.405 74.000,45.200 74.174,45.200 74.387 C 45.200 74.601,45.515 74.664,45.900 74.529 C 46.428 74.343,46.492 74.400,46.160 74.761 C 45.917 75.025,45.345 75.269,44.887 75.303 C 44.430 75.338,44.129 75.485,44.218 75.630 C 44.308 75.775,44.025 76.215,43.591 76.609 C 43.156 77.002,42.800 77.727,42.800 78.219 C 42.800 78.712,42.490 79.233,42.111 79.379 C 41.517 79.607,41.503 79.700,42.011 80.056 C 42.473 80.380,42.405 80.427,41.700 80.272 C 41.206 80.164,40.700 80.238,40.577 80.438 C 40.454 80.637,40.588 80.818,40.876 80.840 C 41.164 80.862,40.950 81.006,40.400 81.160 C 39.658 81.368,39.395 81.717,39.382 82.516 C 39.372 83.108,39.049 83.822,38.664 84.104 C 38.279 84.385,37.935 84.997,37.900 85.464 C 37.865 85.930,37.633 86.234,37.384 86.138 C 37.113 86.034,36.972 86.333,37.032 86.882 C 37.088 87.387,37.148 87.954,37.167 88.143 C 37.185 88.331,37.470 88.382,37.800 88.255 C 38.130 88.129,38.400 88.180,38.400 88.370 C 38.400 88.559,38.130 88.818,37.800 88.945 C 37.470 89.071,37.200 89.006,37.200 88.800 C 37.200 88.594,36.930 88.529,36.600 88.655 C 36.260 88.786,36.000 88.665,36.000 88.376 C 36.000 88.096,35.905 87.962,35.789 88.078 C 35.673 88.194,35.756 88.758,35.974 89.330 C 36.231 90.008,36.233 90.456,35.978 90.613 C 35.389 90.978,35.993 91.688,36.671 91.428 C 36.995 91.304,110.861 91.201,200.817 91.199 C 340.510 91.197,364.342 91.115,364.159 90.639 C 364.042 90.332,364.166 89.945,364.435 89.779 C 364.747 89.585,364.821 89.643,364.638 89.938 C 364.481 90.192,364.533 90.400,364.753 90.400 C 364.973 90.400,365.269 90.211,365.412 89.981 C 365.589 89.694,365.850 89.709,366.236 90.030 C 366.690 90.406,366.800 90.340,366.800 89.692 C 366.800 88.842,365.808 88.224,365.124 88.647 C 364.882 88.797,364.897 88.566,365.162 88.071 C 365.549 87.348,365.501 87.265,364.775 87.405 C 364.250 87.506,364.009 87.388,364.120 87.082 C 364.382 86.358,363.093 84.355,362.509 84.580 C 362.229 84.687,362.000 84.616,362.000 84.421 C 362.000 84.226,362.225 83.976,362.500 83.865 C 362.775 83.754,362.499 83.649,361.886 83.632 C 360.915 83.604,360.825 83.502,361.183 82.833 C 361.518 82.206,361.386 81.891,360.461 81.113 C 359.839 80.589,359.375 79.854,359.430 79.478 C 359.485 79.103,359.378 78.890,359.193 79.005 C 359.007 79.119,358.735 79.018,358.587 78.779 C 358.440 78.541,358.022 78.448,357.660 78.574 C 357.100 78.767,357.107 78.719,357.704 78.254 C 358.288 77.799,358.316 77.628,357.868 77.256 C 357.570 77.009,357.186 76.940,357.014 77.103 C 356.841 77.267,356.825 76.994,356.978 76.497 C 357.190 75.808,357.066 75.524,356.452 75.297 C 356.009 75.134,355.597 74.820,355.536 74.600 C 355.474 74.380,355.209 74.249,354.947 74.310 C 354.649 74.378,354.550 74.115,354.682 73.610 C 354.805 73.136,354.698 72.800,354.423 72.800 C 354.164 72.800,354.067 73.025,354.206 73.300 C 354.345 73.575,354.182 73.440,353.843 73.000 C 353.504 72.560,353.041 71.983,352.814 71.717 C 352.586 71.451,352.400 71.078,352.400 70.887 C 352.400 70.268,350.552 68.784,350.170 69.096 C 349.967 69.263,349.932 69.238,350.094 69.040 C 350.255 68.841,350.075 68.423,349.694 68.110 C 349.232 67.731,349.200 67.627,349.600 67.801 C 349.930 67.944,349.750 67.667,349.200 67.185 C 348.650 66.704,348.200 66.195,348.200 66.055 C 348.200 65.915,348.075 65.842,347.923 65.892 C 347.487 66.038,345.985 63.947,346.235 63.543 C 346.359 63.343,346.311 63.230,346.130 63.290 C 345.700 63.433,343.767 61.500,343.910 61.070 C 343.970 60.889,343.824 60.862,343.585 61.010 C 343.126 61.293,339.200 57.526,339.200 56.802 C 339.200 56.570,338.747 56.208,338.193 55.997 C 337.639 55.787,337.013 55.161,336.803 54.607 C 336.565 53.983,336.108 53.600,335.600 53.600 C 335.120 53.600,334.636 53.227,334.433 52.700 C 334.241 52.205,333.576 51.350,332.955 50.800 C 332.123 50.065,331.973 50.012,332.386 50.600 C 332.694 51.040,332.400 50.860,331.731 50.200 C 331.063 49.540,330.048 48.640,329.476 48.200 C 328.905 47.760,328.429 47.175,328.418 46.900 C 328.408 46.625,328.145 46.400,327.833 46.400 C 327.522 46.400,327.176 46.175,327.065 45.900 C 326.926 45.555,326.849 45.586,326.816 46.000 C 326.790 46.330,326.506 45.996,326.185 45.257 C 325.806 44.382,325.404 43.990,325.034 44.132 C 324.722 44.251,324.366 44.088,324.243 43.769 C 324.121 43.449,323.555 43.011,322.986 42.795 C 322.417 42.578,322.066 42.217,322.206 41.991 C 322.345 41.765,322.279 41.630,322.058 41.690 C 321.837 41.751,321.415 41.477,321.121 41.082 C 320.826 40.687,320.195 40.335,319.720 40.299 C 319.244 40.263,318.944 40.091,319.052 39.916 C 319.160 39.741,318.776 39.419,318.200 39.200 C 317.560 38.957,317.263 38.621,317.438 38.339 C 317.603 38.071,317.549 37.984,317.309 38.133 C 317.081 38.274,316.468 38.062,315.947 37.663 C 315.426 37.263,314.674 36.817,314.275 36.671 C 313.854 36.517,313.670 36.210,313.836 35.941 C 314.012 35.657,313.949 35.584,313.675 35.754 C 313.428 35.906,312.997 35.664,312.717 35.216 C 312.437 34.767,311.885 34.400,311.490 34.400 C 311.096 34.400,310.245 33.860,309.600 33.200 C 308.955 32.540,308.061 32.000,307.613 32.000 C 307.157 32.000,306.800 31.737,306.800 31.400 C 306.800 31.070,306.539 30.800,306.220 30.800 C 305.901 30.800,305.496 30.547,305.320 30.238 C 305.144 29.930,304.550 29.610,304.000 29.529 C 303.450 29.448,303.045 29.160,303.100 28.891 C 303.155 28.621,303.065 28.421,302.900 28.447 C 301.797 28.622,300.800 28.314,300.800 27.800 C 300.800 27.405,300.405 27.200,299.643 27.200 C 298.983 27.200,298.387 26.942,298.255 26.600 C 298.129 26.270,297.670 26.000,297.236 26.000 C 296.802 26.000,296.319 25.792,296.162 25.538 C 295.973 25.233,296.054 25.186,296.400 25.400 C 296.746 25.614,296.827 25.567,296.638 25.262 C 296.481 25.008,296.003 24.800,295.576 24.800 C 295.149 24.800,294.800 24.530,294.800 24.200 C 294.800 23.870,294.665 23.621,294.500 23.647 C 293.418 23.818,292.016 23.527,292.100 23.149 C 292.155 22.901,291.660 22.619,291.001 22.522 C 290.341 22.425,289.657 22.088,289.481 21.773 C 289.305 21.458,288.738 21.200,288.223 21.200 C 287.707 21.200,287.192 20.956,287.077 20.657 C 286.963 20.358,286.301 20.000,285.608 19.862 C 284.905 19.721,284.458 19.430,284.597 19.205 C 284.811 18.859,283.004 18.566,281.870 18.763 C 281.689 18.794,281.643 18.654,281.768 18.452 C 282.026 18.034,281.109 17.600,279.967 17.600 C 279.545 17.600,279.200 17.365,279.200 17.078 C 279.200 16.747,278.581 16.520,277.504 16.456 C 276.529 16.399,275.670 16.110,275.484 15.778 C 275.306 15.460,274.921 15.200,274.629 15.200 C 274.337 15.200,273.874 14.930,273.600 14.600 C 273.326 14.270,272.578 14.000,271.938 14.000 C 271.273 14.000,270.676 13.743,270.545 13.400 C 270.396 13.013,269.777 12.800,268.800 12.800 C 267.928 12.800,267.201 12.580,267.086 12.281 C 266.975 11.990,266.121 11.716,265.147 11.659 C 264.136 11.599,263.272 11.314,263.084 10.978 C 262.906 10.660,262.244 10.400,261.613 10.400 C 260.141 10.400,259.143 10.016,259.426 9.558 C 259.548 9.361,258.749 9.200,257.652 9.200 C 256.412 9.200,255.430 8.973,255.057 8.600 C 254.726 8.269,253.748 8.000,252.878 8.000 C 251.961 8.000,251.089 7.748,250.800 7.400 C 250.463 6.994,249.558 6.800,247.994 6.800 C 246.447 6.800,245.619 6.625,245.482 6.270 C 245.352 5.930,244.441 5.706,242.944 5.646 C 241.436 5.585,240.335 5.312,239.836 4.876 C 239.248 4.362,239.141 4.344,239.390 4.800 C 239.656 5.288,239.617 5.306,239.179 4.900 C 238.882 4.625,237.770 4.400,236.707 4.400 C 235.359 4.400,234.705 4.219,234.545 3.800 C 234.362 3.323,233.510 3.200,230.400 3.200 C 227.383 3.200,226.436 3.069,226.267 2.631 C 226.089 2.166,224.554 2.053,217.932 2.016 C 211.447 1.981,209.753 1.860,209.504 1.415 C 209.016 0.543,192.084 0.516,191.750 1.387 M34.089 90.223 C 33.600 90.565,33.200 91.090,33.200 91.389 C 33.200 91.689,32.975 92.024,32.700 92.135 C 32.300 92.296,32.300 92.343,32.700 92.368 C 32.975 92.386,33.200 92.574,33.200 92.787 C 33.200 93.001,32.912 93.064,32.560 92.929 C 32.000 92.714,31.987 92.790,32.459 93.546 C 32.806 94.101,33.054 94.228,33.156 93.904 C 33.809 91.832,34.027 91.524,34.540 91.950 C 34.934 92.277,35.067 92.243,35.067 91.816 C 35.067 91.502,34.894 91.279,34.683 91.322 C 33.863 91.489,34.027 90.509,34.889 90.093 C 35.390 89.852,35.615 89.642,35.389 89.627 C 35.163 89.612,34.578 89.880,34.089 90.223 M367.200 92.432 C 366.743 92.752,366.838 92.785,367.597 92.569 C 368.469 92.320,368.529 92.363,368.075 92.910 C 367.554 93.537,367.597 93.549,369.149 93.231 C 369.388 93.182,368.328 91.999,368.051 92.006 C 367.913 92.009,367.530 92.201,367.200 92.432 M34.000 93.013 C 34.000 93.660,34.625 93.807,34.974 93.242 C 35.096 93.045,34.926 92.781,34.598 92.654 C 34.235 92.515,34.000 92.656,34.000 93.013 M30.230 95.652 C 29.807 96.063,29.666 96.400,29.917 96.400 C 30.169 96.400,30.268 96.678,30.138 97.017 C 30.008 97.357,29.805 97.538,29.687 97.421 C 29.427 97.161,28.400 97.966,28.400 98.430 C 28.400 99.270,30.802 97.296,31.028 96.271 C 31.343 94.840,31.189 94.720,30.230 95.652 M370.400 96.200 C 370.917 96.750,371.406 97.200,371.488 97.200 C 371.821 97.200,370.172 95.224,369.830 95.213 C 369.627 95.206,369.883 95.650,370.400 96.200 M372.893 101.200 C 373.168 101.640,373.531 102.000,373.700 102.000 C 373.869 102.000,373.782 101.640,373.507 101.200 C 373.232 100.760,372.869 100.400,372.700 100.400 C 372.531 100.400,372.618 100.760,372.893 101.200 M26.700 102.214 C 25.701 103.550,25.831 103.923,26.846 102.633 C 27.311 102.042,27.626 101.495,27.546 101.418 C 27.466 101.341,27.085 101.700,26.700 102.214 M25.410 104.543 C 24.962 104.871,24.840 105.177,25.094 105.335 C 25.322 105.476,25.735 105.319,26.012 104.986 C 26.693 104.165,26.312 103.884,25.410 104.543 M375.073 105.244 C 374.915 105.847,375.066 106.144,375.598 106.284 C 376.009 106.391,376.441 106.731,376.560 107.039 C 376.811 107.693,377.600 107.797,377.600 107.176 C 377.600 106.943,377.440 106.852,377.244 106.973 C 377.048 107.094,376.590 106.565,376.225 105.796 C 375.450 104.163,375.366 104.123,375.073 105.244 M378.907 111.721 C 379.013 112.540,379.698 112.707,379.942 111.974 C 380.031 111.707,379.916 111.605,379.686 111.747 C 379.456 111.889,379.166 111.779,379.041 111.502 C 378.916 111.226,378.856 111.325,378.907 111.721 M20.369 114.100 C 20.027 115.220,20.118 115.600,20.628 115.177 C 20.938 114.920,21.093 114.550,20.972 114.355 C 20.765 114.020,20.436 113.881,20.369 114.100 M18.400 118.824 C 18.400 119.057,18.220 119.136,18.000 119.000 C 17.780 118.864,17.600 119.028,17.600 119.364 C 17.600 119.743,17.828 119.887,18.200 119.745 C 18.743 119.536,19.081 118.400,18.600 118.400 C 18.490 118.400,18.400 118.591,18.400 118.824 M382.400 119.302 C 382.400 119.632,382.670 120.126,383.000 120.400 C 383.488 120.805,383.600 120.786,383.600 120.298 C 383.600 119.968,383.330 119.474,383.000 119.200 C 382.512 118.795,382.400 118.814,382.400 119.302 M16.000 124.824 C 16.000 125.057,15.820 125.136,15.600 125.000 C 15.380 124.864,15.200 124.943,15.200 125.176 C 15.200 125.409,15.470 125.600,15.800 125.600 C 16.130 125.600,16.400 125.330,16.400 125.000 C 16.400 124.670,16.310 124.400,16.200 124.400 C 16.090 124.400,16.000 124.591,16.000 124.824 " stroke="none" fill="#fcf44f" fill-rule="evenodd"></path><path id="path2" d="M240.000 5.000 C 240.274 5.330,240.791 5.594,241.149 5.587 C 241.696 5.577,241.676 5.481,241.024 4.987 C 240.013 4.223,239.362 4.231,240.000 5.000 M350.000 68.125 C 350.000 68.194,350.567 68.779,351.261 69.425 L 352.521 70.600 351.585 69.300 C 350.805 68.216,350.000 67.620,350.000 68.125 M360.596 81.196 C 361.226 81.854,361.824 82.309,361.925 82.208 C 362.167 81.966,360.307 80.016,359.825 80.007 C 359.619 80.003,359.966 80.538,360.596 81.196 M386.000 127.524 C 386.000 127.739,386.285 128.024,386.633 128.157 C 387.023 128.307,387.206 128.218,387.108 127.925 C 386.909 127.327,386.000 126.998,386.000 127.524 M13.067 129.867 C 12.581 130.353,12.790 130.779,13.400 130.545 C 13.730 130.418,14.000 130.154,14.000 129.957 C 14.000 129.538,13.449 129.484,13.067 129.867 M9.635 141.135 C 9.360 141.649,9.214 142.147,9.311 142.244 C 9.625 142.558,10.480 141.241,10.305 140.715 C 10.197 140.390,9.951 140.545,9.635 141.135 M390.875 142.025 C 390.971 142.314,391.286 142.629,391.575 142.725 C 391.875 142.825,392.025 142.675,391.925 142.375 C 391.829 142.086,391.514 141.771,391.225 141.675 C 390.925 141.575,390.775 141.725,390.875 142.025 M3.695 164.865 C 3.423 165.137,3.200 165.724,3.200 166.169 C 3.200 166.943,3.227 166.939,3.830 166.079 C 4.558 165.039,4.454 164.106,3.695 164.865 M396.813 166.051 C 396.837 167.078,398.000 168.327,398.000 167.325 C 398.000 166.870,397.730 166.274,397.400 166.000 C 396.916 165.598,396.802 165.608,396.813 166.051 M398.075 174.425 C 398.171 174.714,398.486 175.029,398.775 175.125 C 399.075 175.225,399.225 175.075,399.125 174.775 C 399.029 174.486,398.714 174.171,398.425 174.075 C 398.125 173.975,397.975 174.125,398.075 174.425 M398.267 226.267 C 397.753 226.781,397.999 227.575,398.600 227.345 C 398.930 227.218,399.200 226.864,399.200 226.557 C 399.200 225.969,398.715 225.818,398.267 226.267 M2.075 227.625 C 2.171 227.914,2.486 228.229,2.775 228.325 C 3.075 228.425,3.225 228.275,3.125 227.975 C 3.029 227.686,2.714 227.371,2.425 227.275 C 2.125 227.175,1.975 227.325,2.075 227.625 M397.300 233.981 C 396.567 235.166,396.657 235.915,397.438 235.133 C 397.790 234.782,398.015 234.197,397.938 233.834 C 397.819 233.266,397.730 233.287,397.300 233.981 M3.271 235.369 C 3.342 236.012,3.625 236.612,3.900 236.702 C 4.586 236.928,4.506 235.971,3.759 235.000 C 3.165 234.229,3.147 234.243,3.271 235.369 M394.962 245.138 C 395.119 245.392,395.057 245.600,394.824 245.600 C 394.591 245.600,394.400 245.864,394.400 246.187 C 394.400 246.545,394.635 246.685,395.000 246.545 C 395.712 246.272,395.791 245.365,395.138 244.962 C 394.852 244.785,394.785 244.852,394.962 245.138 M393.697 250.199 C 393.860 250.379,393.793 250.768,393.548 251.063 C 393.206 251.475,393.253 251.600,393.751 251.600 C 394.515 251.600,394.621 250.575,393.900 250.159 C 393.625 250.001,393.533 250.019,393.697 250.199 M392.576 254.718 C 392.737 255.002,392.651 255.497,392.385 255.818 C 392.031 256.245,392.025 256.400,392.364 256.400 C 393.072 256.400,393.370 255.205,392.794 254.673 C 392.397 254.305,392.348 254.315,392.576 254.718 M8.162 255.755 C 7.901 256.435,8.251 257.200,8.824 257.200 C 9.328 257.200,9.306 255.713,8.797 255.398 C 8.576 255.261,8.290 255.422,8.162 255.755 M9.427 258.757 C 9.282 258.992,9.392 259.592,9.673 260.092 L 10.182 261.000 10.325 260.054 C 10.486 258.989,9.850 258.072,9.427 258.757 M390.984 258.827 C 390.839 259.061,390.816 259.349,390.933 259.467 C 391.220 259.753,392.000 259.248,392.000 258.776 C 392.000 258.265,391.309 258.299,390.984 258.827 M390.000 263.000 C 389.592 263.491,389.620 263.600,390.151 263.600 C 390.508 263.600,390.800 263.330,390.800 263.000 C 390.800 262.670,390.732 262.400,390.649 262.400 C 390.566 262.400,390.274 262.670,390.000 263.000 M388.656 266.278 C 388.205 266.728,388.381 267.200,389.000 267.200 C 389.330 267.200,389.600 267.031,389.600 266.824 C 389.600 266.319,388.975 265.958,388.656 266.278 M11.729 267.040 C 11.594 267.393,11.734 267.837,12.042 268.028 C 12.391 268.245,12.660 268.200,12.760 267.907 C 12.848 267.650,12.712 267.371,12.458 267.286 C 12.203 267.201,12.097 266.967,12.221 266.766 C 12.345 266.565,12.341 266.400,12.211 266.400 C 12.081 266.400,11.864 266.688,11.729 267.040 M387.467 269.067 C 387.000 269.533,387.180 270.059,387.700 269.747 C 388.040 269.543,388.024 269.663,387.651 270.123 C 387.178 270.706,387.192 270.800,387.747 270.800 C 388.189 270.800,388.365 270.487,388.308 269.800 C 388.225 268.797,387.964 268.569,387.467 269.067 M12.969 270.540 C 12.790 271.003,12.893 271.411,13.242 271.628 C 13.955 272.071,14.183 271.456,13.655 270.515 C 13.272 269.833,13.241 269.834,12.969 270.540 M386.053 273.075 C 385.678 273.481,385.636 273.796,385.918 274.078 C 386.418 274.578,387.200 274.163,387.200 273.400 C 387.200 272.564,386.666 272.413,386.053 273.075 M14.000 273.689 C 14.000 274.012,14.348 274.591,14.773 274.976 C 15.198 275.360,15.449 275.928,15.330 276.238 C 15.202 276.571,15.366 276.800,15.732 276.800 C 16.096 276.800,16.326 276.483,16.292 276.028 C 16.260 275.603,16.104 275.336,15.946 275.434 C 15.787 275.531,15.548 275.265,15.413 274.842 C 15.072 273.767,14.000 272.892,14.000 273.689 M385.167 274.476 C 384.789 275.898,384.838 276.854,385.281 276.707 C 385.871 276.510,386.071 274.891,385.546 274.567 C 385.356 274.449,385.185 274.408,385.167 274.476 M382.566 280.055 C 382.381 280.354,382.450 280.416,382.757 280.227 C 383.099 280.015,383.189 280.255,383.069 281.065 C 382.977 281.689,382.686 282.151,382.421 282.090 C 382.157 282.030,382.055 282.165,382.194 282.390 C 382.772 283.326,383.520 282.767,383.520 281.399 C 383.520 279.923,383.054 279.266,382.566 280.055 M18.196 280.407 C 17.590 281.388,17.592 282.800,18.200 282.800 C 18.663 282.800,18.751 282.543,18.553 281.757 C 18.380 281.067,18.479 280.596,18.846 280.363 C 19.208 280.134,19.235 280.010,18.924 280.006 C 18.662 280.003,18.334 280.183,18.196 280.407 M381.400 283.106 C 381.180 283.268,380.952 283.670,380.894 284.000 C 380.812 284.464,380.912 284.442,381.334 283.906 C 381.634 283.525,382.025 283.345,382.204 283.506 C 382.382 283.668,382.399 283.575,382.241 283.300 C 381.906 282.719,381.922 282.723,381.400 283.106 M381.425 284.772 C 380.755 285.513,380.760 285.536,381.563 285.326 C 382.023 285.205,382.400 284.858,382.400 284.553 C 382.400 283.821,382.257 283.854,381.425 284.772 M20.298 284.863 C 20.064 285.008,19.631 285.033,19.336 284.920 C 18.494 284.597,18.710 285.523,19.585 285.992 C 20.047 286.239,20.276 286.657,20.142 287.006 C 20.017 287.333,20.099 287.600,20.324 287.600 C 20.550 287.600,21.064 287.707,21.467 287.838 C 22.077 288.035,22.099 288.003,21.600 287.644 C 21.270 287.406,21.195 287.209,21.433 287.206 C 22.198 287.195,22.407 287.709,21.897 288.340 C 21.500 288.829,21.501 288.893,21.900 288.653 C 22.249 288.443,22.400 288.669,22.400 289.400 C 22.400 289.976,22.561 290.348,22.758 290.226 C 23.149 289.985,23.750 291.183,23.409 291.524 C 23.294 291.639,23.200 291.513,23.200 291.243 C 23.200 290.973,23.011 290.869,22.781 291.012 C 22.499 291.186,22.531 291.481,22.881 291.912 C 23.270 292.393,23.275 292.478,22.900 292.253 C 22.625 292.088,22.400 292.133,22.400 292.353 C 22.400 293.026,23.204 293.295,23.782 292.815 C 24.111 292.542,24.422 292.511,24.562 292.739 C 24.690 292.946,24.541 293.214,24.229 293.333 C 23.579 293.583,23.628 294.588,24.324 295.284 C 24.586 295.546,24.800 296.062,24.800 296.431 C 24.800 297.362,25.848 298.215,26.134 297.517 C 26.251 297.233,26.246 297.585,26.123 298.300 C 25.961 299.241,26.052 299.604,26.450 299.613 C 27.732 299.642,28.533 300.761,28.467 302.430 C 28.416 303.750,28.555 304.116,29.174 304.277 C 29.598 304.388,29.855 304.712,29.745 304.998 C 29.636 305.283,29.917 305.777,30.371 306.094 C 30.824 306.412,31.072 306.795,30.922 306.945 C 30.771 307.095,31.045 307.497,31.531 307.837 C 32.016 308.177,32.295 308.646,32.151 308.879 C 32.001 309.123,32.124 309.225,32.440 309.120 C 32.974 308.942,34.413 310.379,34.387 311.063 C 34.380 311.248,34.110 311.051,33.787 310.624 C 33.213 309.865,33.200 309.867,33.200 310.724 C 33.200 311.329,33.444 311.600,33.987 311.600 C 34.526 311.600,34.702 311.791,34.543 312.205 C 34.276 312.899,35.116 314.099,35.641 313.775 C 35.833 313.656,35.903 313.793,35.795 314.079 C 35.685 314.370,36.130 314.901,36.799 315.281 C 37.726 315.807,38.000 316.244,38.000 317.194 C 38.000 317.919,38.246 318.520,38.600 318.655 C 38.930 318.782,39.200 319.136,39.200 319.443 C 39.200 319.749,39.554 320.000,39.987 320.000 C 40.559 320.000,40.705 320.183,40.518 320.669 C 40.323 321.177,40.423 321.277,40.931 321.082 C 41.408 320.899,41.600 321.037,41.600 321.564 C 41.600 321.970,41.870 322.526,42.200 322.800 C 42.530 323.074,42.800 323.615,42.800 324.002 C 42.800 324.390,43.178 324.806,43.640 324.926 C 44.116 325.051,44.363 325.336,44.211 325.583 C 44.062 325.823,44.134 325.970,44.371 325.910 C 44.788 325.804,45.531 326.840,46.373 328.700 C 46.597 329.195,46.965 329.600,47.190 329.600 C 47.416 329.600,47.600 329.870,47.600 330.200 C 47.600 330.530,47.870 330.800,48.200 330.800 C 48.530 330.800,48.800 331.070,48.800 331.400 C 48.800 331.730,49.070 332.000,49.400 332.000 C 49.730 332.000,50.000 332.270,50.000 332.600 C 50.000 332.930,50.354 333.200,50.787 333.200 C 51.359 333.200,51.505 333.383,51.318 333.869 C 51.123 334.377,51.223 334.477,51.731 334.282 C 52.346 334.046,52.596 334.417,52.437 335.330 C 52.406 335.511,52.577 335.538,52.817 335.389 C 53.064 335.237,53.349 335.484,53.474 335.960 C 53.594 336.422,53.942 336.800,54.247 336.800 C 54.551 336.800,54.800 336.992,54.800 337.227 C 54.800 338.055,56.905 340.400,57.647 340.400 C 58.061 340.400,58.400 340.670,58.400 341.000 C 58.400 341.330,58.670 341.600,59.000 341.600 C 59.330 341.600,59.600 341.870,59.600 342.200 C 59.600 342.530,59.870 342.800,60.200 342.800 C 60.530 342.800,60.800 343.124,60.800 343.520 C 60.800 344.442,61.558 345.200,62.480 345.200 C 62.876 345.200,63.200 345.470,63.200 345.800 C 63.200 346.130,63.470 346.400,63.800 346.400 C 64.130 346.400,64.400 346.670,64.400 347.000 C 64.400 347.330,64.670 347.600,65.000 347.600 C 65.330 347.600,65.600 347.842,65.600 348.138 C 65.600 348.892,67.061 350.133,67.575 349.816 C 67.822 349.662,68.000 349.897,68.000 350.376 C 68.000 350.842,68.261 351.200,68.600 351.200 C 68.930 351.200,69.200 351.470,69.200 351.800 C 69.200 352.130,69.470 352.400,69.800 352.400 C 70.130 352.400,70.400 352.670,70.400 353.000 C 70.400 353.330,70.670 353.600,71.000 353.600 C 71.330 353.600,71.600 353.770,71.600 353.978 C 71.600 354.351,73.139 355.338,74.500 355.837 C 74.885 355.978,75.200 356.342,75.200 356.647 C 75.200 356.951,75.470 357.200,75.800 357.200 C 76.130 357.200,76.400 357.470,76.400 357.800 C 76.400 358.189,76.789 358.400,77.505 358.400 C 78.268 358.400,78.733 358.679,79.005 359.300 C 79.222 359.795,79.805 360.378,80.300 360.595 C 80.795 360.812,81.200 361.217,81.200 361.495 C 81.200 361.773,81.448 362.000,81.751 362.000 C 82.054 362.000,82.526 362.270,82.800 362.600 C 83.074 362.930,83.636 363.200,84.049 363.200 C 84.462 363.200,84.800 363.470,84.800 363.800 C 84.800 364.130,85.070 364.400,85.400 364.400 C 85.730 364.400,86.000 364.670,86.000 365.000 C 86.000 365.330,86.248 365.600,86.551 365.600 C 86.854 365.600,87.326 365.870,87.600 366.200 C 87.874 366.530,88.436 366.800,88.849 366.800 C 89.262 366.800,89.600 367.070,89.600 367.400 C 89.600 367.800,90.000 368.000,90.800 368.000 C 91.600 368.000,92.000 368.200,92.000 368.600 C 92.000 368.930,92.338 369.200,92.751 369.200 C 93.164 369.200,93.726 369.470,94.000 369.800 C 94.274 370.130,94.746 370.400,95.049 370.400 C 95.352 370.400,95.600 370.670,95.600 371.000 C 95.600 371.330,95.851 371.600,96.157 371.600 C 96.464 371.600,96.818 371.870,96.945 372.200 C 97.071 372.530,97.611 372.800,98.145 372.800 C 98.678 372.800,99.218 373.070,99.345 373.400 C 99.471 373.730,100.031 374.000,100.587 374.000 C 101.221 374.000,101.600 374.225,101.600 374.600 C 101.600 374.930,101.938 375.200,102.351 375.200 C 102.764 375.200,103.326 375.470,103.600 375.800 C 103.874 376.130,104.352 376.400,104.662 376.400 C 104.971 376.400,105.329 376.670,105.455 377.000 C 105.584 377.335,106.178 377.600,106.800 377.600 C 107.422 377.600,108.016 377.865,108.145 378.200 C 108.289 378.577,108.901 378.800,109.787 378.800 C 110.776 378.800,111.200 378.980,111.200 379.400 C 111.200 379.730,111.541 380.000,111.957 380.000 C 112.374 380.000,112.818 380.270,112.945 380.600 C 113.071 380.930,113.609 381.200,114.138 381.200 C 114.668 381.200,115.326 381.470,115.600 381.800 C 115.874 382.130,116.616 382.400,117.249 382.400 C 118.005 382.400,118.400 382.606,118.400 383.000 C 118.400 383.395,118.795 383.600,119.557 383.600 C 120.217 383.600,120.813 383.858,120.945 384.200 C 121.097 384.596,121.723 384.800,122.787 384.800 C 123.954 384.800,124.400 384.966,124.400 385.400 C 124.400 385.800,124.800 386.000,125.600 386.000 C 126.400 386.000,126.800 386.200,126.800 386.600 C 126.800 387.001,127.201 387.200,128.013 387.200 C 128.721 387.200,129.321 387.449,129.455 387.800 C 129.604 388.187,130.223 388.400,131.200 388.400 C 132.177 388.400,132.796 388.613,132.945 389.000 C 133.111 389.433,133.790 389.600,135.387 389.600 C 137.087 389.600,137.600 389.739,137.600 390.200 C 137.600 390.595,137.995 390.800,138.757 390.800 C 139.417 390.800,140.013 391.058,140.145 391.400 C 140.297 391.797,140.924 392.000,142.000 392.000 C 143.076 392.000,143.703 392.203,143.855 392.600 C 144.020 393.029,144.690 393.200,146.200 393.200 C 147.710 393.200,148.380 393.371,148.545 393.800 C 148.719 394.255,149.456 394.400,151.587 394.400 C 153.821 394.400,154.400 394.524,154.400 395.000 C 154.400 395.452,154.884 395.600,156.357 395.600 C 157.728 395.600,158.383 395.780,158.545 396.200 C 158.716 396.647,159.429 396.800,161.345 396.800 C 163.260 396.800,163.973 396.953,164.145 397.400 C 164.328 397.878,165.190 398.000,168.387 398.000 C 171.687 398.000,172.400 398.107,172.400 398.600 C 172.400 399.111,173.467 399.200,179.600 399.200 C 184.133 399.200,186.800 399.348,186.800 399.600 C 186.800 399.859,191.667 400.000,200.600 400.000 C 209.533 400.000,214.400 399.859,214.400 399.600 C 214.400 399.349,217.004 399.200,221.413 399.200 C 227.277 399.200,228.463 399.102,228.655 398.600 C 228.839 398.122,229.696 398.000,232.855 398.000 C 236.015 398.000,236.872 397.878,237.055 397.400 C 237.219 396.973,237.886 396.800,239.366 396.800 C 240.577 396.800,241.772 396.554,242.224 396.213 C 242.651 395.890,243.855 395.620,244.900 395.613 C 246.317 395.603,246.800 395.447,246.800 395.000 C 246.800 394.525,247.373 394.400,249.557 394.400 C 251.639 394.400,252.371 394.253,252.545 393.800 C 252.710 393.369,253.385 393.200,254.945 393.200 C 256.504 393.200,257.179 393.031,257.345 392.600 C 257.497 392.203,258.124 392.000,259.200 392.000 C 260.276 392.000,260.903 391.797,261.055 391.400 C 261.187 391.058,261.783 390.800,262.443 390.800 C 263.205 390.800,263.600 390.595,263.600 390.200 C 263.600 389.746,264.090 389.600,265.613 389.600 C 267.032 389.600,267.693 389.423,267.855 389.000 C 267.995 388.636,268.600 388.400,269.394 388.400 C 270.113 388.400,270.926 388.130,271.200 387.800 C 271.474 387.470,272.306 387.200,273.049 387.200 C 273.983 387.200,274.400 387.015,274.400 386.600 C 274.400 386.200,274.800 386.000,275.600 386.000 C 276.400 386.000,276.800 385.800,276.800 385.400 C 276.800 385.000,277.200 384.800,278.000 384.800 C 278.800 384.800,279.200 384.600,279.200 384.200 C 279.200 383.756,279.667 383.600,281.000 383.600 C 282.333 383.600,282.800 383.444,282.800 383.000 C 282.800 382.600,283.200 382.400,284.000 382.400 C 284.800 382.400,285.200 382.200,285.200 381.800 C 285.200 381.406,285.595 381.200,286.351 381.200 C 286.984 381.200,287.726 380.930,288.000 380.600 C 288.274 380.270,288.836 380.000,289.249 380.000 C 289.662 380.000,290.000 379.730,290.000 379.400 C 290.000 379.006,290.395 378.800,291.151 378.800 C 291.784 378.800,292.526 378.530,292.800 378.200 C 293.074 377.870,293.614 377.600,294.000 377.600 C 294.386 377.600,294.926 377.330,295.200 377.000 C 295.474 376.670,296.014 376.400,296.400 376.400 C 296.786 376.400,297.326 376.130,297.600 375.800 C 297.874 375.470,298.436 375.200,298.849 375.200 C 299.262 375.200,299.600 374.930,299.600 374.600 C 299.600 374.234,299.973 374.000,300.557 374.000 C 301.084 374.000,301.618 373.730,301.745 373.400 C 301.871 373.070,302.346 372.800,302.800 372.800 C 303.254 372.800,303.729 372.530,303.855 372.200 C 303.982 371.870,304.426 371.600,304.843 371.600 C 305.259 371.600,305.600 371.330,305.600 371.000 C 305.600 370.670,305.848 370.400,306.151 370.400 C 306.454 370.400,306.926 370.130,307.200 369.800 C 307.474 369.470,308.036 369.200,308.449 369.200 C 308.862 369.200,309.200 368.930,309.200 368.600 C 309.200 368.230,309.576 368.000,310.180 368.000 C 310.719 368.000,311.304 367.775,311.480 367.500 C 311.806 366.991,312.915 366.211,314.000 365.728 C 314.330 365.581,314.744 365.222,314.920 364.930 C 315.096 364.639,315.501 364.400,315.820 364.400 C 316.139 364.400,316.400 364.130,316.400 363.800 C 316.400 363.470,316.648 363.200,316.951 363.200 C 317.254 363.200,317.726 362.930,318.000 362.600 C 318.274 362.270,318.836 362.000,319.249 362.000 C 319.662 362.000,320.000 361.773,320.000 361.495 C 320.000 361.217,320.405 360.812,320.900 360.595 C 321.395 360.378,321.978 359.795,322.195 359.300 C 322.467 358.679,322.932 358.400,323.695 358.400 C 324.411 358.400,324.800 358.189,324.800 357.800 C 324.800 357.470,325.070 357.200,325.400 357.200 C 325.730 357.200,326.000 356.930,326.000 356.600 C 326.000 356.270,326.270 356.000,326.600 356.000 C 326.930 356.000,327.200 355.730,327.200 355.400 C 327.200 355.070,327.470 354.800,327.800 354.800 C 328.130 354.800,328.400 354.530,328.400 354.200 C 328.400 353.825,328.779 353.600,329.413 353.600 C 329.969 353.600,330.529 353.330,330.655 353.000 C 330.782 352.670,331.136 352.400,331.443 352.400 C 331.749 352.400,332.000 352.130,332.000 351.800 C 332.000 351.470,332.270 351.200,332.600 351.200 C 332.930 351.200,333.200 350.930,333.200 350.600 C 333.200 350.270,333.470 350.000,333.800 350.000 C 334.130 350.000,334.400 349.730,334.400 349.400 C 334.400 349.070,334.670 348.800,335.000 348.800 C 335.330 348.800,335.600 348.530,335.600 348.200 C 335.600 347.870,335.870 347.600,336.200 347.600 C 336.530 347.600,336.800 347.330,336.800 347.000 C 336.800 346.670,337.070 346.400,337.400 346.400 C 337.730 346.400,338.000 346.046,338.000 345.613 C 338.000 345.127,338.201 344.902,338.525 345.027 C 338.814 345.138,339.399 344.831,339.825 344.345 C 340.297 343.808,340.365 343.598,340.000 343.808 C 339.483 344.106,339.476 344.060,339.949 343.477 C 340.251 343.105,340.746 342.800,341.049 342.800 C 341.352 342.800,341.600 342.530,341.600 342.200 C 341.600 341.870,341.870 341.600,342.200 341.600 C 342.530 341.600,342.800 341.373,342.800 341.095 C 342.800 340.817,343.205 340.412,343.700 340.195 C 344.195 339.978,344.778 339.395,344.995 338.900 C 345.212 338.405,345.596 338.000,345.848 338.000 C 346.100 338.000,346.406 337.622,346.526 337.160 C 346.651 336.684,346.936 336.437,347.183 336.589 C 347.423 336.738,347.594 336.711,347.563 336.530 C 347.404 335.617,347.654 335.246,348.269 335.482 C 348.777 335.677,348.877 335.577,348.682 335.069 C 348.495 334.583,348.641 334.400,349.213 334.400 C 349.646 334.400,350.000 334.130,350.000 333.800 C 350.000 333.470,350.270 333.200,350.600 333.200 C 350.930 333.200,351.200 332.930,351.200 332.600 C 351.200 332.270,351.470 332.000,351.800 332.000 C 352.130 332.000,352.400 331.752,352.400 331.449 C 352.400 331.146,352.659 330.683,352.976 330.420 C 353.293 330.157,353.612 329.550,353.685 329.071 C 353.759 328.592,354.040 328.245,354.309 328.300 C 354.579 328.355,354.779 328.265,354.753 328.100 C 354.611 327.205,354.862 326.849,355.469 327.082 C 355.977 327.277,356.077 327.177,355.882 326.669 C 355.695 326.183,355.841 326.000,356.413 326.000 C 356.846 326.000,357.200 325.749,357.200 325.443 C 357.200 325.136,357.470 324.782,357.800 324.655 C 358.149 324.521,358.400 323.923,358.400 323.225 C 358.400 322.323,358.549 322.082,359.000 322.255 C 359.380 322.401,359.600 322.250,359.600 321.843 C 359.600 321.489,359.870 321.200,360.200 321.200 C 360.530 321.200,360.800 320.949,360.800 320.643 C 360.800 320.336,361.059 319.986,361.375 319.865 C 361.699 319.741,362.004 318.981,362.075 318.122 C 362.144 317.274,362.422 316.578,362.700 316.550 C 362.975 316.523,363.470 316.478,363.800 316.450 C 364.185 316.418,364.400 315.981,364.400 315.229 C 364.400 313.979,365.288 312.800,366.229 312.800 C 366.543 312.800,366.800 312.552,366.800 312.249 C 366.800 311.946,367.070 311.474,367.400 311.200 C 367.730 310.926,368.000 310.364,368.000 309.951 C 368.000 309.538,368.270 309.200,368.600 309.200 C 368.930 309.200,369.200 308.899,369.200 308.531 C 369.200 308.164,369.515 307.503,369.900 307.063 C 370.285 306.623,370.375 306.394,370.100 306.555 C 369.825 306.716,369.600 306.660,369.600 306.431 C 369.600 306.202,370.050 305.902,370.600 305.764 C 371.266 305.597,371.600 305.235,371.600 304.680 C 371.600 303.862,371.590 303.861,371.013 304.624 C 370.481 305.326,370.424 305.333,370.413 304.700 C 370.406 304.315,370.625 303.979,370.900 303.954 C 371.175 303.928,371.670 303.883,372.000 303.854 C 372.330 303.824,372.600 303.530,372.600 303.200 C 372.600 302.870,372.375 302.645,372.100 302.700 C 371.421 302.836,371.471 302.560,372.300 301.592 C 372.685 301.142,373.000 300.600,373.000 300.387 C 373.000 300.174,373.090 300.037,373.200 300.082 C 373.629 300.257,375.200 298.586,375.200 297.954 C 375.200 297.586,375.491 297.174,375.846 297.038 C 376.283 296.870,376.430 296.468,376.301 295.795 C 376.154 295.023,376.278 294.800,376.855 294.800 C 377.265 294.800,377.600 294.626,377.600 294.413 C 377.600 294.199,377.348 294.122,377.040 294.240 C 376.308 294.521,375.955 293.917,376.420 293.181 C 376.672 292.782,376.790 292.757,376.794 293.100 C 376.797 293.375,376.989 293.600,377.220 293.600 C 377.502 293.600,377.512 293.371,377.248 292.900 C 376.968 292.400,377.026 292.014,377.451 291.544 C 377.778 291.182,378.103 290.372,378.174 289.743 C 378.271 288.876,378.505 288.607,379.143 288.631 C 379.771 288.654,379.879 288.536,379.568 288.162 C 379.260 287.790,379.383 287.628,380.045 287.531 C 380.536 287.459,381.019 287.130,381.119 286.800 C 381.259 286.335,381.188 286.306,380.801 286.669 C 380.246 287.191,379.077 286.923,379.428 286.355 C 379.551 286.156,379.552 285.679,379.431 285.296 C 379.204 284.582,21.452 284.150,20.298 284.863 M21.440 285.788 C 21.440 286.331,21.197 286.869,20.899 286.983 C 20.602 287.097,20.461 287.025,20.586 286.823 C 20.711 286.621,20.603 286.325,20.346 286.167 C 19.985 285.944,20.864 284.800,21.396 284.800 C 21.420 284.800,21.440 285.245,21.440 285.788 M379.100 289.632 C 378.715 289.856,378.400 290.242,378.400 290.488 C 378.400 290.735,378.102 291.266,377.738 291.669 C 377.116 292.356,377.129 292.400,377.956 292.400 C 378.439 292.400,378.806 292.175,378.770 291.900 C 378.613 290.694,378.843 290.000,379.400 290.000 C 379.730 290.000,380.000 289.820,380.000 289.600 C 380.000 289.117,379.982 289.118,379.100 289.632 " stroke="none" fill="#fcf409" fill-rule="evenodd"></path><path id="path3" d="M398.233 186.257 C 398.095 186.619,398.075 187.009,398.191 187.124 C 398.306 187.239,398.413 187.078,398.428 186.767 C 398.445 186.431,398.597 186.526,398.802 187.000 C 399.100 187.690,399.139 187.649,399.087 186.700 C 399.018 185.469,398.616 185.261,398.233 186.257 M1.044 199.500 C 1.073 206.478,1.247 210.592,1.544 211.326 C 2.136 212.788,2.122 213.320,1.500 212.947 C 1.109 212.712,1.103 212.774,1.476 213.235 C 1.788 213.622,1.984 215.982,2.047 220.112 C 2.121 225.012,2.259 226.400,2.671 226.400 C 3.068 226.400,3.200 227.247,3.200 229.800 C 3.200 231.670,3.363 233.200,3.563 233.200 C 3.762 233.200,3.824 233.588,3.700 234.063 C 3.574 234.544,3.638 234.824,3.844 234.696 C 4.052 234.568,4.268 235.546,4.336 236.919 C 4.464 239.484,4.650 240.140,5.163 239.823 C 5.332 239.719,5.508 240.661,5.554 241.917 C 5.666 244.965,5.831 245.816,6.291 245.721 C 6.502 245.677,6.714 246.837,6.761 248.297 C 6.853 251.121,7.030 251.752,7.628 251.383 C 7.924 251.200,8.144 253.342,7.964 254.664 C 7.944 254.809,8.214 255.088,8.564 255.284 C 8.931 255.489,9.200 256.162,9.200 256.876 C 9.200 257.556,9.463 258.312,9.784 258.556 C 10.127 258.816,10.407 259.803,10.461 260.942 C 10.516 262.099,10.765 262.965,11.077 263.085 C 11.397 263.208,11.600 263.961,11.600 265.023 C 11.600 266.163,11.809 266.877,12.209 267.101 C 12.562 267.299,12.842 268.058,12.873 268.905 C 12.904 269.710,13.082 270.273,13.269 270.157 C 13.576 269.968,14.203 272.028,14.021 272.627 C 13.980 272.762,14.237 273.085,14.591 273.344 C 14.945 273.603,15.287 274.307,15.351 274.908 C 15.415 275.509,15.617 276.136,15.798 276.301 C 15.980 276.465,16.006 276.387,15.858 276.128 C 15.709 275.868,15.774 275.539,16.003 275.398 C 16.232 275.256,16.394 275.289,16.363 275.470 C 16.192 276.450,16.445 278.419,16.719 278.250 C 16.895 278.142,17.300 278.238,17.619 278.464 C 18.096 278.802,18.077 278.836,17.513 278.655 C 17.135 278.534,16.719 278.607,16.589 278.817 C 16.459 279.028,16.633 279.200,16.976 279.200 C 17.387 279.200,17.600 279.568,17.600 280.276 C 17.600 281.304,17.626 281.317,18.167 280.577 C 18.479 280.150,18.869 279.936,19.034 280.101 C 19.199 280.265,19.123 280.400,18.867 280.400 C 18.610 280.400,18.400 280.771,18.400 281.224 C 18.400 281.744,18.230 281.942,17.938 281.762 C 17.650 281.584,17.585 281.652,17.766 281.945 C 17.925 282.202,18.223 282.309,18.428 282.183 C 18.763 281.976,18.992 282.858,18.833 283.742 C 18.731 284.313,19.627 285.164,20.129 284.972 C 21.851 284.313,379.221 284.636,379.431 285.296 C 379.552 285.679,379.520 286.205,379.360 286.464 C 379.160 286.788,379.289 286.852,379.767 286.668 C 380.151 286.521,380.650 286.400,380.876 286.400 C 381.101 286.400,381.188 286.147,381.070 285.838 C 380.951 285.528,381.177 284.983,381.572 284.626 C 381.967 284.268,382.267 283.576,382.238 283.088 C 382.185 282.164,382.806 281.167,383.263 281.443 C 383.407 281.530,383.432 281.243,383.317 280.805 C 383.203 280.367,382.922 280.125,382.693 280.266 C 382.449 280.417,382.396 280.330,382.566 280.055 C 382.725 279.798,383.010 279.683,383.199 279.799 C 383.388 279.916,383.658 279.646,383.800 279.200 C 383.942 278.754,384.225 278.492,384.429 278.618 C 384.633 278.744,384.823 278.117,384.850 277.224 C 384.917 275.053,384.942 274.919,385.364 274.533 C 385.574 274.342,385.613 274.401,385.458 274.672 C 385.309 274.932,385.357 275.250,385.565 275.378 C 385.780 275.511,385.881 275.121,385.799 274.474 C 385.700 273.692,385.897 273.163,386.428 272.780 C 386.852 272.474,387.200 271.872,387.200 271.443 C 387.200 271.014,387.515 270.292,387.900 269.838 C 388.567 269.053,388.567 269.040,387.900 269.556 C 387.418 269.929,387.200 269.954,387.200 269.636 C 387.200 269.383,387.470 269.071,387.800 268.945 C 388.144 268.813,388.400 268.215,388.400 267.545 C 388.400 266.874,388.656 266.277,389.000 266.145 C 389.392 265.994,389.600 265.371,389.600 264.345 C 389.600 263.422,389.815 262.692,390.123 262.574 C 390.413 262.463,390.689 261.628,390.744 260.694 C 390.799 259.771,391.104 258.728,391.422 258.376 C 391.740 258.025,392.000 257.166,392.000 256.469 C 392.000 255.771,392.191 255.200,392.424 255.200 C 392.657 255.200,392.736 255.020,392.600 254.800 C 392.464 254.580,392.508 254.400,392.698 254.400 C 392.888 254.400,393.088 253.635,393.142 252.700 C 393.196 251.765,393.412 250.940,393.623 250.866 C 393.833 250.792,393.903 250.567,393.779 250.366 C 393.655 250.165,393.743 250.000,393.976 250.000 C 394.217 250.000,394.400 249.151,394.400 248.033 C 394.400 245.813,394.712 244.698,395.242 245.026 C 395.524 245.200,395.856 240.021,395.647 238.700 C 395.621 238.535,395.825 238.445,396.100 238.500 C 396.440 238.568,396.640 237.899,396.724 236.412 C 396.792 235.209,397.033 234.002,397.258 233.730 C 397.484 233.458,397.553 233.047,397.411 232.818 C 397.269 232.588,397.351 232.400,397.594 232.400 C 397.837 232.400,398.006 232.175,397.970 231.900 C 397.688 229.731,398.063 225.200,398.525 225.200 C 398.936 225.200,399.071 223.503,399.148 217.309 C 399.218 211.733,399.387 209.329,399.723 209.115 C 400.062 208.900,400.026 208.809,399.600 208.800 C 399.067 208.789,399.067 208.745,399.600 208.400 C 400.000 208.142,400.033 208.010,399.700 208.006 C 399.425 208.003,399.200 207.550,399.200 207.000 C 399.200 206.450,399.380 206.000,399.600 206.000 C 400.221 206.000,400.124 197.717,399.500 197.465 C 399.100 197.304,399.100 197.257,399.500 197.232 C 400.089 197.194,400.187 195.200,399.600 195.200 C 399.380 195.200,399.200 194.917,399.200 194.571 C 399.200 194.226,398.930 193.673,398.600 193.343 C 398.067 192.810,398.000 192.820,398.000 193.438 C 398.000 193.820,397.888 194.021,397.751 193.884 C 397.613 193.747,397.619 193.327,397.764 192.950 C 397.964 192.429,398.137 192.377,398.493 192.733 C 398.750 192.990,399.239 193.186,399.580 193.168 C 399.992 193.147,400.032 193.069,399.700 192.935 C 399.425 192.824,399.200 192.468,399.200 192.143 C 399.200 191.818,399.021 191.664,398.801 191.799 C 398.538 191.962,398.533 191.702,398.786 191.037 C 399.031 190.392,399.031 189.943,398.785 189.791 C 398.573 189.660,398.397 189.788,398.394 190.076 C 398.389 190.490,398.321 190.494,398.069 190.098 C 397.667 189.465,4.486 189.354,3.853 189.987 C 3.606 190.234,3.288 190.126,2.967 189.687 C 2.288 188.758,1.703 189.432,2.324 190.427 C 2.781 191.159,2.757 191.180,1.992 190.709 C 1.501 190.406,1.239 189.916,1.345 189.500 C 1.444 189.115,1.407 188.800,1.263 188.800 C 1.118 188.800,1.020 193.615,1.044 199.500 M20.735 285.212 C 20.105 285.580,19.940 286.834,20.525 286.811 C 20.676 286.805,20.944 286.800,21.120 286.800 C 21.296 286.800,21.440 286.350,21.440 285.800 C 21.440 285.250,21.431 284.805,21.420 284.812 C 21.409 284.819,21.101 284.999,20.735 285.212 M21.600 287.563 C 22.007 287.851,22.039 287.990,21.700 287.994 C 21.425 287.997,21.200 288.371,21.200 288.824 C 21.200 289.277,21.365 289.545,21.566 289.421 C 21.767 289.297,22.031 289.421,22.152 289.698 C 22.273 289.974,22.323 289.582,22.262 288.826 C 22.200 288.040,21.906 287.384,21.577 287.295 C 21.105 287.167,21.109 287.216,21.600 287.563 M379.381 287.970 C 379.507 288.173,379.312 288.398,378.949 288.470 C 378.557 288.547,378.239 289.066,378.167 289.743 C 378.100 290.372,377.774 291.186,377.443 291.553 C 377.019 292.021,376.958 292.393,377.237 292.809 C 377.558 293.288,377.611 293.250,377.517 292.609 C 377.445 292.126,377.634 291.811,378.000 291.800 C 378.369 291.789,378.548 291.485,378.464 291.012 C 378.390 290.588,378.588 290.051,378.906 289.819 C 379.676 289.256,380.196 287.600,379.603 287.600 C 379.356 287.600,379.256 287.766,379.381 287.970 M22.678 290.255 C 22.251 290.683,22.349 291.279,22.800 291.000 C 23.020 290.864,23.200 290.973,23.200 291.243 C 23.200 291.513,23.306 291.627,23.437 291.497 C 23.567 291.367,23.512 290.971,23.315 290.619 C 23.117 290.266,22.831 290.103,22.678 290.255 M376.277 293.343 C 376.144 293.690,376.219 294.088,376.444 294.227 C 377.067 294.612,377.319 294.142,376.896 293.386 C 376.559 292.784,376.493 292.780,376.277 293.343 M372.100 301.798 C 371.455 302.531,371.470 302.667,372.200 302.667 C 372.530 302.667,372.800 302.337,372.800 301.933 C 372.800 301.066,372.753 301.056,372.100 301.798 M362.188 316.820 C 361.807 317.435,362.328 317.832,362.842 317.318 C 363.129 317.031,363.136 316.807,362.862 316.639 C 362.639 316.500,362.335 316.582,362.188 316.820 " stroke="none" fill="#fcf42c" fill-rule="evenodd"></path><path id="path4" d="M386.105 128.729 C 386.135 129.135,386.394 129.467,386.680 129.467 C 387.347 129.467,387.335 129.278,386.625 128.567 C 386.124 128.067,386.056 128.088,386.105 128.729 M387.500 131.199 C 387.775 131.508,388.000 131.915,388.000 132.104 C 388.000 132.293,387.775 132.312,387.500 132.147 C 387.187 131.959,387.220 132.137,387.587 132.623 C 387.910 133.050,388.202 133.453,388.237 133.517 C 388.272 133.581,388.300 133.179,388.300 132.624 C 388.300 132.069,388.007 131.395,387.650 131.127 C 387.104 130.717,387.080 130.728,387.500 131.199 M9.388 142.820 C 9.007 143.435,9.528 143.832,10.042 143.318 C 10.329 143.031,10.336 142.807,10.062 142.639 C 9.839 142.500,9.535 142.582,9.388 142.820 M390.637 142.740 C 390.344 143.214,390.760 144.400,391.219 144.400 C 391.846 144.400,391.930 143.792,391.403 143.072 C 391.110 142.672,390.770 142.524,390.637 142.740 M391.200 147.120 C 391.200 147.516,391.065 148.015,390.900 148.228 C 390.735 148.442,390.897 148.301,391.259 147.914 C 391.802 147.336,391.958 147.313,392.137 147.780 C 392.257 148.093,392.140 148.436,391.878 148.543 C 391.615 148.649,391.715 148.751,392.100 148.768 C 392.928 148.806,392.939 148.743,392.336 147.419 C 391.797 146.236,391.200 146.079,391.200 147.120 M8.996 148.007 C 8.858 148.230,8.616 148.333,8.458 148.236 C 8.300 148.138,8.171 148.379,8.171 148.770 C 8.171 149.244,8.399 149.421,8.858 149.301 C 9.235 149.202,9.519 148.779,9.487 148.361 C 9.422 147.492,9.347 147.438,8.996 148.007 M391.600 149.524 C 391.600 149.734,391.970 150.004,392.423 150.122 C 392.946 150.259,393.189 150.167,393.090 149.869 C 392.898 149.293,391.600 148.993,391.600 149.524 M7.340 150.074 C 7.458 150.445,7.340 150.836,7.078 150.943 C 6.779 151.064,6.825 151.146,7.200 151.162 C 7.530 151.176,8.064 151.021,8.387 150.817 C 8.767 150.576,9.177 150.614,9.552 150.923 C 10.050 151.333,10.062 151.270,9.638 150.474 C 9.229 149.707,9.041 149.634,8.542 150.048 C 8.055 150.452,7.861 150.438,7.532 149.974 C 7.199 149.505,7.164 149.523,7.340 150.074 M391.799 150.799 C 392.142 151.354,9.728 151.554,9.126 151.000 C 8.820 150.719,8.753 150.858,8.900 151.470 C 9.054 152.111,8.958 152.282,8.534 152.119 C 8.088 151.948,8.019 152.135,8.224 152.954 C 8.441 153.817,8.372 153.964,7.844 153.762 C 7.267 153.540,7.116 153.773,7.240 154.700 C 7.262 154.865,7.425 154.961,7.602 154.913 C 7.779 154.865,8.017 155.068,8.131 155.365 C 8.287 155.771,7.976 155.868,6.869 155.760 C 6.061 155.680,5.616 155.714,5.880 155.834 C 6.224 155.991,6.250 156.343,5.971 157.077 C 5.757 157.640,5.624 158.727,5.676 159.494 C 5.736 160.385,5.543 161.052,5.142 161.345 C 4.798 161.598,4.522 162.163,4.529 162.602 C 4.577 165.417,4.348 167.615,4.028 167.417 C 3.823 167.291,3.542 167.370,3.404 167.593 C 3.266 167.817,3.440 168.000,3.790 168.000 C 4.313 168.000,4.348 168.151,3.981 168.835 C 3.735 169.295,3.438 170.960,3.320 172.535 C 3.203 174.111,2.921 175.580,2.694 175.800 C 2.414 176.072,2.386 176.008,2.605 175.600 C 2.783 175.270,2.780 175.135,2.598 175.299 C 2.080 175.769,1.979 177.660,2.488 177.345 C 2.780 177.165,2.804 177.262,2.562 177.638 C 2.028 178.467,2.039 186.421,2.573 186.102 C 2.808 185.961,2.769 186.132,2.486 186.481 C 1.924 187.175,1.973 188.033,2.600 188.494 C 2.829 188.662,2.714 188.790,2.333 188.794 C 1.967 188.797,1.575 188.615,1.463 188.390 C 1.351 188.165,1.311 188.210,1.373 188.490 C 1.434 188.770,1.338 189.399,1.158 189.886 C 0.952 190.444,0.996 190.874,1.277 191.048 C 1.548 191.215,1.612 191.142,1.438 190.862 C 1.057 190.245,1.705 190.272,2.367 190.900 C 2.796 191.307,2.796 191.237,2.362 190.518 C 1.720 189.454,2.256 188.716,2.967 189.687 C 3.288 190.126,3.606 190.234,3.853 189.987 C 4.486 189.354,397.667 189.465,398.069 190.098 C 398.321 190.494,398.389 190.490,398.394 190.076 C 398.397 189.788,398.560 189.652,398.756 189.773 C 398.953 189.894,399.088 189.092,399.056 187.991 C 399.008 186.285,398.926 186.090,398.500 186.671 C 398.225 187.046,398.000 187.151,398.000 186.905 C 398.000 186.659,398.240 186.217,398.533 185.924 C 399.142 185.315,399.222 180.544,398.638 179.638 C 398.402 179.272,398.421 179.166,398.691 179.333 C 399.225 179.663,399.086 177.681,398.497 176.582 C 398.258 176.134,397.990 174.483,397.904 172.913 C 397.817 171.343,397.524 169.790,397.252 169.463 C 396.848 168.975,396.889 168.833,397.479 168.680 C 398.142 168.508,398.144 168.489,397.500 168.446 C 396.967 168.411,396.799 168.042,396.795 166.900 C 396.788 165.067,396.410 163.547,396.021 163.787 C 395.677 164.000,395.644 163.704,395.567 159.700 C 395.518 157.189,395.430 156.790,395.105 157.600 L 394.703 158.600 394.418 157.600 C 394.260 157.050,394.173 156.029,394.224 155.331 C 394.300 154.277,394.187 154.087,393.558 154.208 C 392.979 154.320,392.800 154.120,392.800 153.364 C 392.800 152.820,392.531 152.272,392.202 152.146 C 391.576 151.905,391.758 151.200,392.447 151.200 C 392.667 151.200,392.742 151.371,392.613 151.579 C 392.484 151.788,392.753 151.886,393.210 151.798 C 393.870 151.671,393.993 151.792,393.805 152.385 C 393.674 152.796,393.718 153.226,393.902 153.339 C 394.086 153.453,394.228 153.063,394.218 152.473 C 394.208 151.883,393.984 151.400,393.720 151.400 C 393.456 151.400,393.015 151.175,392.740 150.900 C 392.145 150.305,391.448 150.230,391.799 150.799 M0.893 192.800 C 0.893 193.570,0.975 193.885,1.076 193.500 C 1.176 193.115,1.176 192.485,1.076 192.100 C 0.975 191.715,0.893 192.030,0.893 192.800 M397.728 193.044 C 397.603 193.369,397.613 193.747,397.751 193.884 C 397.888 194.021,398.000 193.820,398.000 193.438 C 398.000 192.820,398.067 192.810,398.600 193.343 C 398.930 193.673,399.200 194.226,399.200 194.571 C 399.200 194.917,399.380 195.200,399.600 195.200 C 399.820 195.200,399.999 194.795,399.997 194.300 C 399.993 193.160,398.088 192.105,397.728 193.044 M0.924 197.000 C 0.926 198.320,1.001 198.812,1.090 198.093 C 1.179 197.374,1.177 196.294,1.086 195.693 C 0.995 195.092,0.922 195.680,0.924 197.000 M0.920 204.400 C 0.920 205.610,0.995 206.105,1.087 205.500 C 1.178 204.895,1.178 203.905,1.087 203.300 C 0.995 202.695,0.920 203.190,0.920 204.400 M399.200 207.000 C 399.200 207.550,399.380 208.000,399.600 208.000 C 399.820 208.000,400.000 207.550,400.000 207.000 C 400.000 206.450,399.820 206.000,399.600 206.000 C 399.380 206.000,399.200 206.450,399.200 207.000 M1.155 211.273 C 1.446 212.044,1.430 212.390,1.100 212.500 C 0.844 212.585,0.962 212.776,1.365 212.931 C 2.156 213.235,1.988 211.449,1.147 210.600 C 0.891 210.342,0.894 210.581,1.155 211.273 " stroke="none" fill="#fcf434" fill-rule="evenodd"></path></g></svg>